{
.appVersion = "3343";
.formatVersion = 3;
axes = (
{
name = Language;
tag = LANG;
}
);
date = "2023-05-05 00:46:51 +0000";
familyName = "NEW LATIN";
fontMaster = (
{
axesValues = (
0
);
customParameters = (
{
name = typoAscender;
value = 1491;
},
{
name = typoDescender;
value = -431;
},
{
name = typoLineGap;
value = 536;
},
{
name = winAscent;
value = 2027;
},
{
name = winDescent;
value = 431;
},
{
name = hheaAscender;
value = 2027;
},
{
name = hheaDescender;
value = -431;
},
{
name = strikeoutPosition;
value = 530;
},
{
name = strikeoutSize;
value = 100;
}
);
id = m01;
metricValues = (
{
pos = 1491;
},
{
pos = 1467;
},
{
pos = 1062;
},
{
},
{
pos = -431;
},
{
}
);
name = Regular;
},
{
axesValues = (
50
);
customParameters = (
{
name = typoAscender;
value = 1491;
},
{
name = typoDescender;
value = -431;
},
{
name = typoLineGap;
value = 536;
},
{
name = winAscent;
value = 2027;
},
{
name = winDescent;
value = 431;
},
{
name = hheaAscender;
value = 2027;
},
{
name = hheaDescender;
value = -431;
},
{
name = strikeoutPosition;
value = 530;
},
{
name = strikeoutSize;
value = 100;
}
);
id = "D99AEC69-38CE-4900-973C-16B918F65192";
metricValues = (
{
pos = 1491;
},
{
pos = 1467;
},
{
pos = 1062;
},
{
},
{
pos = -431;
},
{
}
);
name = Halfway;
},
{
axesValues = (
100
);
customParameters = (
{
name = typoAscender;
value = 1491;
},
{
name = typoDescender;
value = -431;
},
{
name = typoLineGap;
value = 536;
},
{
name = winAscent;
value = 2027;
},
{
name = winDescent;
value = 431;
},
{
name = hheaAscender;
value = 2027;
},
{
name = hheaDescender;
value = -431;
},
{
name = strikeoutPosition;
value = 530;
},
{
name = strikeoutSize;
value = 100;
}
);
id = "127036BF-2D52-44F9-AC71-F87836DD5CF9";
metricValues = (
{
pos = 1491;
},
{
pos = 1467;
},
{
pos = 1062;
},
{
},
{
pos = -431;
},
{
}
);
name = Translated;
}
);
glyphs = (
{
glyphname = A;
layers = (
{
layerId = m01;
shapes = (
{
closed = 1;
nodes = (
(364,444,l),
(977,444,l),
(1148,0,l),
(1369,0,l),
(769,1466,l),
(560,1466,l),
(-3,0,l),
(203,0,l)
);
},
{
closed = 1;
nodes = (
(632,1171,o),
(660,1312,q),
(694,1193,o),
(764,1008,qs),
(917,602,l),
(420,602,l),
(581,1032,ls)
);
}
);
width = 1366;
},
{
layerId = "D99AEC69-38CE-4900-973C-16B918F65192";
shapes = (
{
closed = 1;
nodes = (
(284,222,l),
(1063,222,l),
(1148,0,l),
(1369,0,l),
(769,1466,l),
(560,1466,l),
(-3,0,l),
(203,0,l)
);
},
{
closed = 1;
nodes = (
(633,1171,o),
(660,1312,q),
(695,1193,o),
(764,1008,qs),
(998,388,l),
(340,388,l),
(581,1032,ls)
);
}
);
width = 1366;
},
{
layerId = "127036BF-2D52-44F9-AC71-F87836DD5CF9";
shapes = (
{
closed = 1;
nodes = (
(203,0,l),
(1148,0,l),
(1148,0,l),
(1369,0,l),
(769,1466,l),
(560,1466,l),
(-3,0,l),
(203,0,l)
);
},
{
closed = 1;
nodes = (
(633,1171,o),
(660,1312,q),
(695,1192,o),
(764,1008,qs),
(1079,173,l),
(259,173,l),
(581,1032,ls)
);
}
);
width = 1366;
}
);
note = A;
unicode = 65;
},
{
glyphname = B;
layers = (
{
layerId = m01;
shapes = (
{
closed = 1;
nodes = (
(435,0,o),
(651,0,qs),
(1024,0,o),
(1259,253,o),
(1259,405,qs),
(1259,563,o),
(1087,757,o),
(981,780,q),
(1084,831,o),
(1185,985,o),
(1185,1113,qs),
(1185,1252,o),
(944,1467,o),
(674,1467,qs),
(538,1467,o),
(140,1463,o),
(140,1463,o),
(140,1463,q),
(140,0,l),
(319,0,l),
(319,0,l)
);
},
{
closed = 1;
nodes = (
(637,683,ls),
(786,683,o),
(944,648,o),
(1056,510,o),
(1056,406,qs),
(1056,314,o),
(911,174,o),
(767,174,qs),
(664,174,o),
(339,174,o),
(339,174,o),
(339,174,q),
(339,683,l),
(616,683,l),
(616,853,l),
(339,853,l),
(339,1293,l),
(339,1293,o),
(339,1293,o),
(558,1293,o),
(651,1293,qs),
(858,1293,o),
(995,1178,o),
(995,1068,qs),
(995,942,o),
(824,853,o),
(616,853,q),
(616,683,l)
);
}
);
width = 1366;
},
{
layerId = "D99AEC69-38CE-4900-973C-16B918F65192";
shapes = (
{
closed = 1;
nodes = (
(435,-12,o),
(651,-12,qs),
(943,-12,o),
(1172,249,o),
(1172,410,qs),
(1172,568,o),
(992,773,o),
(852,793,q),
(957,828,o),
(1091,987,o),
(1091,1118,qs),
(1091,1256,o),
(867,1479,o),
(632,1479,qs),
(496,1479,o),
(275,1446,o),
(140,1319,o),
(140,1235,qs),
(140,-203,l),
(319,-203,l),
(319,68,l)
);
},
{
closed = 1;
nodes = (
(571,708,ls),
(710,708,o),
(868,661,o),
(977,510,o),
(977,406,qs),
(977,297,o),
(832,141,o),
(698,141,qs),
(595,141,o),
(353,206,o),
(329,287,o),
(329,373,qs),
(329,709,l),
(468,709,l),
(468,859,l),
(329,859,l),
(329,1134,ls),
(329,1209,o),
(345,1269,o),
(523,1318,o),
(616,1318,qs),
(773,1318,o),
(913,1195,o),
(913,1091,qs),
(913,967,o),
(743,859,o),
(547,859,q),
(547,708,l)
);
}
);
width = 1366;
},
{
layerId = "127036BF-2D52-44F9-AC71-F87836DD5CF9";
shapes = (
{
closed = 1;
nodes = (
(435,-24,o),
(651,-24,qs),
(862,-24,o),
(1085,245,o),
(1085,415,qs),
(1085,573,o),
(896,789,o),
(722,806,q),
(830,825,o),
(997,989,o),
(997,1123,qs),
(997,1260,o),
(790,1491,o),
(589,1491,qs),
(453,1491,o),
(231,1366,o),
(140,1175,o),
(140,1006,qs),
(140,-407,l),
(319,-407,l),
(319,135,l)
);
},
{
closed = 1;
nodes = (
(504,733,ls),
(634,733,o),
(791,674,o),
(898,509,o),
(898,405,qs),
(898,279,o),
(753,108,o),
(628,108,qs),
(525,108,o),
(367,238,o),
(319,400,o),
(319,572,qs),
(319,734,l),
(319,734,l),
(319,864,l),
(319,864,l),
(319,975,ls),
(319,1125,o),
(350,1245,o),
(487,1343,o),
(580,1343,qs),
(687,1343,o),
(830,1211,o),
(830,1113,qs),
(830,992,o),
(662,864,o),
(478,864,q),
(478,733,l)
);
}
);
width = 1205;
}
);
note = B;
unicode = 66;
},
{
glyphname = C;
layers = (
{
layerId = m01;
shapes = (
{
closed = 1;
nodes = (
(1164,329,o),
(938,141,o),
(775,141,qs),
(641,141,o),
(411,279,o),
(302,558,o),
(302,745,qs),
(302,890,o),
(394,1163,o),
(621,1325,o),
(790,1325,qs),
(937,1325,o),
(1131,1179,o),
(1182,1019,q),
(1373,1064,l),
(1314,1267,o),
(1014,1491,o),
(794,1491,qs),
(600,1491,o),
(277,1314,o),
(102,973,o),
(102,744,qs),
(102,534,o),
(257,168,o),
(554,-25,o),
(791,-25,qs),
(1020,-25,o),
(1337,226,o),
(1398,465,q),
(1204,514,l)
);
}
);
width = 1479;
},
{
layerId = "D99AEC69-38CE-4900-973C-16B918F65192";
shapes = (
{
closed = 1;
nodes = (
(1164,329,o),
(938,141,o),
(775,141,qs),
(641,141,o),
(411,279,o),
(302,558,o),
(302,745,qs),
(302,890,o),
(394,1163,o),
(621,1325,o),
(790,1325,qs),
(937,1325,o),
(1131,1179,o),
(1182,1019,q),
(1373,1064,l),
(1314,1267,o),
(1014,1491,o),
(794,1491,qs),
(600,1491,o),
(277,1314,o),
(102,973,o),
(102,744,qs),
(102,534,o),
(257,168,o),
(554,-25,o),
(791,-25,qs),
(1020,-25,o),
(1337,226,o),
(1398,465,q),
(1204,514,l)
);
}
);
width = 1479;
},
{
layerId = "127036BF-2D52-44F9-AC71-F87836DD5CF9";
shapes = (
{
closed = 1;
nodes = (
(1164,329,o),
(938,141,o),
(775,141,qs),
(641,141,o),
(411,279,o),
(302,558,o),
(302,745,qs),
(302,890,o),
(394,1163,o),
(621,1325,o),
(790,1325,qs),
(937,1325,o),
(1131,1179,o),
(1182,1019,q),
(1373,1064,l),
(1314,1267,o),
(1014,1491,o),
(794,1491,qs),
(600,1491,o),
(277,1314,o),
(102,973,o),
(102,744,qs),
(102,534,o),
(257,168,o),
(554,-25,o),
(791,-25,qs),
(1020,-25,o),
(1337,226,o),
(1398,465,q),
(1204,514,l)
);
}
);
width = 1479;
}
);
note = C;
unicode = 67;
},
{
glyphname = D;
layers = (
{
layerId = m01;
shapes = (
{
closed = 1;
nodes = (
(820,0,o),
(1025,50,o),
(1170,147,o),
(1292,316,o),
(1370,574,o),
(1370,741,qs),
(1370,937,o),
(1255,1242,o),
(1139,1340,qs),
(1050,1416,o),
(924,1445,qs),
(834,1466,o),
(663,1466,qs),
(158,1466,l),
(158,799,l),
(158,799,l),
(158,667,l),
(158,667,l),
(158,0,l),
(687,0,ls)
);
},
{
closed = 1;
nodes = (
(660,1293,ls),
(833,1293,o),
(911,1263,qs),
(1019,1221,o),
(1170,974,o),
(1170,744,qs),
(1170,578,o),
(1093,345,o),
(1024,276,qs),
(975,227,o),
(810,173,o),
(665,173,qs),
(352,173,l),
(352,667,l),
(352,667,l),
(352,799,l),
(352,799,l),
(352,1293,l)
);
}
);
width = 1479;
},
{
layerId = "127036BF-2D52-44F9-AC71-F87836DD5CF9";
shapes = (
{
closed = 1;
nodes = (
(820,0,o),
(1025,50,o),
(1170,147,o),
(1292,316,o),
(1370,574,o),
(1370,741,qs),
(1370,937,o),
(1255,1242,o),
(1139,1340,qs),
(1050,1416,o),
(924,1445,qs),
(834,1466,o),
(663,1466,qs),
(158,1466,l),
(158,799,l),
(0,799,l),
(0,667,l),
(158,667,l),
(158,0,l),
(687,0,ls)
);
},
{
closed = 1;
nodes = (
(660,1293,ls),
(833,1293,o),
(911,1263,qs),
(1019,1221,o),
(1170,974,o),
(1170,744,qs),
(1170,578,o),
(1093,345,o),
(1024,276,qs),
(975,227,o),
(810,173,o),
(665,173,qs),
(352,173,l),
(352,667,l),
(756,667,l),
(756,799,l),
(352,799,l),
(352,1293,l)
);
}
);
width = 1479;
},
{
layerId = "D99AEC69-38CE-4900-973C-16B918F65192";
shapes = (
{
closed = 1;
nodes = (
(820,0,o),
(1025,50,o),
(1170,147,o),
(1292,316,o),
(1370,574,o),
(1370,741,qs),
(1370,937,o),
(1255,1242,o),
(1139,1340,qs),
(1050,1416,o),
(924,1445,qs),
(834,1466,o),
(663,1466,qs),
(158,1466,l),
(158,799,l),
(158,799,l),
(158,667,l),
(158,667,l),
(158,0,l),
(687,0,ls)
);
},
{
closed = 1;
nodes = (
(660,1293,ls),
(833,1293,o),
(911,1263,qs),
(1019,1221,o),
(1170,974,o),
(1170,744,qs),
(1170,578,o),
(1093,345,o),
(1024,276,qs),
(975,227,o),
(810,173,o),
(665,173,qs),
(352,173,l),
(352,667,l),
(352,667,l),
(352,799,l),
(352,799,l),
(352,1293,l)
);
}
);
width = 1479;
}
);
note = D;
unicode = 68;
},
{
glyphname = E;
layers = (
{
layerId = m01;
shapes = (
{
closed = 1;
nodes = (
(1256,173,l),
(356,173,l),
(356,672,l),
(1167,672,l),
(1167,844,l),
(356,844,l),
(356,1293,l),
(1222,1293,l),
(1222,1466,l),
(162,1466,l),
(162,672,l),
(627,753,l),
(162,844,l),
(162,0,l),
(1256,0,l)
);
}
);
width = 1366;
},
{
layerId = "D99AEC69-38CE-4900-973C-16B918F65192";
shapes = (
{
closed = 1;
nodes = (
(1256,173,l),
(356,173,l),
(356,423,l),
(1013,717,l),
(1013,803,l),
(356,1069,l),
(356,1293,l),
(1222,1293,l),
(1222,1466,l),
(162,1466,l),
(162,971,l),
(627,753,l),
(162,524,l),
(162,0,l),
(1256,0,l)
);
}
);
width = 1366;
},
{
layerId = "127036BF-2D52-44F9-AC71-F87836DD5CF9";
shapes = (
{
closed = 1;
nodes = (
(1256,173,l),
(356,173,l),
(356,173,l),
(858,761,l),
(858,761,l),
(356,1293,l),
(356,1293,l),
(1222,1293,l),
(1222,1466,l),
(162,1466,l),
(162,1269,l),
(627,753,l),
(162,204,l),
(162,0,l),
(1256,0,l)
);
}
);
width = 1366;
}
);
note = E;
unicode = 69;
},
{
glyphname = F;
layers = (
{
layerId = m01;
shapes = (
{
closed = 1;
nodes = (
(362,666,l),
(1050,666,l),
(1050,839,l),
(362,839,l),
(362,1293,l),
(1157,1293,l),
(1157,1466,l),
(168,1466,l),
(168,0,l),
(362,0,l)
);
}
);
width = 1251;
},
{
layerId = "D99AEC69-38CE-4900-973C-16B918F65192";
shapes = (
{
closed = 1;
nodes = (
(362,666,l),
(1050,666,l),
(1050,839,l),
(362,839,l),
(362,1293,l),
(1157,1293,l),
(1157,1466,l),
(168,1466,l),
(168,0,l),
(362,0,l)
);
}
);
width = 1251;
},
{
layerId = "127036BF-2D52-44F9-AC71-F87836DD5CF9";
shapes = (
{
closed = 1;
nodes = (
(362,666,l),
(1050,666,l),
(1050,839,l),
(362,839,l),
(362,1293,l),
(1157,1293,l),
(1157,1466,l),
(168,1466,l),
(168,0,l),
(362,0,l)
);
}
);
width = 1251;
}
);
note = F;
unicode = 70;
},
{
glyphname = G;
layers = (
{
layerId = m01;
shapes = (
{
closed = 1;
nodes = (
(1275,302,l),
(1213,247,o),
(973,150,o),
(847,150,qs),
(702,150,o),
(444,278,o),
(309,542,o),
(309,738,qs),
(309,897,o),
(365,1033,qs),
(398,1112,o),
(517,1244,o),
(711,1325,o),
(844,1325,qs),
(955,1325,o),
(1137,1248,o),
(1235,1120,o),
(1268,1008,q),
(1443,1056,l),
(1405,1204,o),
(1259,1388,o),
(1002,1491,o),
(843,1491,qs),
(624,1491,o),
(288,1311,o),
(109,940,o),
(109,726,qs),
(109,510,o),
(289,160,o),
(642,-25,o),
(858,-25,qs),
(1018,-25,o),
(1322,90,o),
(1465,204,q),
(1465,748,l),
(844,747,l),
(844,575,l),
(1275,575,l)
);
}
);
width = 1630;
},
{
layerId = "D99AEC69-38CE-4900-973C-16B918F65192";
shapes = (
{
closed = 1;
nodes = (
(1275,302,l),
(1213,247,o),
(973,150,o),
(847,150,qs),
(702,150,o),
(444,278,o),
(309,542,o),
(309,738,qs),
(309,897,o),
(365,1033,qs),
(398,1112,o),
(517,1244,o),
(711,1325,o),
(844,1325,qs),
(955,1325,o),
(1137,1248,o),
(1235,1120,o),
(1268,1008,q),
(1443,1056,l),
(1405,1204,o),
(1259,1388,o),
(1002,1491,o),
(843,1491,qs),
(624,1491,o),
(288,1311,o),
(109,940,o),
(109,726,qs),
(109,510,o),
(289,160,o),
(642,-25,o),
(858,-25,qs),
(1018,-25,o),
(1322,90,o),
(1465,204,q),
(1465,748,l),
(844,747,l),
(844,575,l),
(1275,575,l)
);
}
);
width = 1630;
},
{
layerId = "127036BF-2D52-44F9-AC71-F87836DD5CF9";
shapes = (
{
closed = 1;
nodes = (
(1275,302,l),
(1213,247,o),
(973,150,o),
(847,150,qs),
(702,150,o),
(444,278,o),
(309,542,o),
(309,738,qs),
(309,897,o),
(365,1033,qs),
(398,1112,o),
(517,1244,o),
(711,1325,o),
(844,1325,qs),
(955,1325,o),
(1137,1248,o),
(1235,1120,o),
(1268,1008,q),
(1443,1056,l),
(1405,1204,o),
(1259,1388,o),
(1002,1491,o),
(843,1491,qs),
(624,1491,o),
(288,1311,o),
(109,940,o),
(109,726,qs),
(109,510,o),
(289,160,o),
(642,-25,o),
(858,-25,qs),
(1018,-25,o),
(1322,90,o),
(1465,204,q),
(1465,748,l),
(844,747,l),
(844,575,l),
(1275,575,l)
);
}
);
width = 1630;
}
);
note = G;
unicode = 71;
},
{
glyphname = H;
layers = (
{
layerId = m01;
shapes = (
{
closed = 1;
nodes = (
(358,691,l),
(1120,691,l),
(1120,463,o),
(1120,235,o),
(1120,0,q),
(1314,0,l),
(1314,258,o),
(1314,517,o),
(1314,783,qs),
(1314,1008,o),
(1314,1234,o),
(1314,1466,q),
(1120,1466,l),
(1120,1267,o),
(1120,1069,o),
(1120,864,q),
(358,864,l),
(358,1466,l),
(164,1466,l),
(164,0,l),
(358,0,l)
);
}
);
width = 1479;
},
{
layerId = "D99AEC69-38CE-4900-973C-16B918F65192";
shapes = (
{
closed = 1;
nodes = (
(358,691,l),
(1009,691,l),
(1011,517,o),
(1061,142,o),
(1111,0,q),
(1314,0,l),
(1263,132,o),
(1193,541,o),
(1193,783,qs),
(1193,981,o),
(1263,1341,o),
(1314,1466,q),
(1111,1466,l),
(1061,1329,o),
(1011,1005,o),
(1009,864,q),
(358,864,l),
(358,1466,l),
(164,1466,l),
(164,0,l),
(358,0,l)
);
}
);
width = 1479;
},
{
layerId = "127036BF-2D52-44F9-AC71-F87836DD5CF9";
shapes = (
{
closed = 1;
nodes = (
(358,691,l),
(917,691,l),
(926,509,o),
(1022,132,o),
(1111,0,q),
(1314,0,l),
(1225,132,o),
(1101,541,o),
(1101,783,qs),
(1101,981,o),
(1225,1341,o),
(1314,1466,q),
(1111,1466,l),
(1022,1329,o),
(926,1005,o),
(917,864,q),
(358,864,l),
(358,1466,l),
(164,1466,l),
(164,0,l),
(358,0,l)
);
}
);
width = 1394;
}
);
note = H;
unicode = 72;
},
{
glyphname = I;
layers = (
{
layerId = m01;
shapes = (
{
closed = 1;
nodes = (
(385,1466,l),
(191,1466,l),
(191,0,l),
(385,0,l)
);
},
{
closed = 1;
nodes = (
(191,1294,l),
(385,1294,l),
(385,1467,l),
(191,1467,l)
);
},
{
closed = 1;
nodes = (
(191,0,l),
(385,0,l),
(385,173,l),
(191,173,l)
);
}
);
width = 569;
},
{
layerId = "127036BF-2D52-44F9-AC71-F87836DD5CF9";
shapes = (
{
closed = 1;
nodes = (
(385,1466,l),
(191,1466,l),
(191,0,l),
(385,0,l)
);
},
{
closed = 1;
nodes = (
(47,1294,l),
(528,1294,l),
(528,1467,l),
(47,1467,l)
);
},
{
closed = 1;
nodes = (
(47,0,l),
(528,0,l),
(528,173,l),
(47,173,l)
);
}
);
width = 569;
},
{
layerId = "D99AEC69-38CE-4900-973C-16B918F65192";
shapes = (
{
closed = 1;
nodes = (
(385,1466,l),
(191,1466,l),
(191,0,l),
(385,0,l)
);
},
{
closed = 1;
nodes = (
(191,1294,l),
(385,1294,l),
(385,1467,l),
(191,1467,l)
);
},
{
closed = 1;
nodes = (
(191,0,l),
(385,0,l),
(385,173,l),
(191,173,l)
);
}
);
width = 569;
}
);
note = I;
unicode = 73;
},
{
glyphname = J;
layers = (
{
layerId = m01;
shapes = (
{
closed = 1;
nodes = (
(55,197,o),
(260,-25,o),
(453,-25,qs),
(583,-25,o),
(776,81,o),
(865,283,o),
(865,467,qs),
(865,1466,l),
(671,1466,l),
(671,456,ls),
(671,330,o),
(631,215,o),
(525,148,o),
(452,148,qs),
(353,148,o),
(241,272,o),
(234,440,q),
(59,416,l)
);
}
);
width = 1024;
},
{
layerId = "D99AEC69-38CE-4900-973C-16B918F65192";
shapes = (
{
closed = 1;
nodes = (
(55,197,o),
(260,-25,o),
(453,-25,qs),
(583,-25,o),
(776,81,o),
(865,283,o),
(865,467,qs),
(865,1466,l),
(671,1466,l),
(671,456,ls),
(671,330,o),
(631,215,o),
(525,148,o),
(452,148,qs),
(353,148,o),
(241,272,o),
(234,440,q),
(59,416,l)
);
}
);
width = 1024;
},
{
layerId = "127036BF-2D52-44F9-AC71-F87836DD5CF9";
shapes = (
{
closed = 1;
nodes = (
(55,197,o),
(260,-25,o),
(453,-25,qs),
(583,-25,o),
(776,81,o),
(865,283,o),
(865,467,qs),
(865,1466,l),
(671,1466,l),
(671,456,ls),
(671,330,o),
(631,215,o),
(525,148,o),
(452,148,qs),
(353,148,o),
(241,272,o),
(234,440,q),
(59,416,l)
);
}
);
width = 1024;
}
);
note = J;
unicode = 74;
},
{
glyphname = K;
layers = (
{
layerId = m01;
shapes = (
{
closed = 1;
nodes = (
(355,0,l),
(355,506,l),
(355,506,o),
(588,736,o),
(588,736,q),
(1122,0,l),
(1363,0,l),
(720,872,l),
(720,872,o),
(720,872,q),
(720,872,o),
(720,872,o),
(720,872,q),
(909,1124,o),
(720,872,q),
(1335,1466,o),
(1335,1466,q),
(1335,1466,o),
(1335,1466,q),
(1335,1466,o),
(1335,1466,q),
(1072,1466,l),
(1072,1466,o),
(1072,1466,q),
(1072,1466,o),
(1072,1466,o),
(355,747,o),
(355,747,q),
(355,747,o),
(355,747,o),
(355,747,q),
(355,1466,l),
(161,1466,l),
(161,0,l)
);
}
);
width = 1366;
},
{
layerId = "D99AEC69-38CE-4900-973C-16B918F65192";
shapes = (
{
closed = 1;
nodes = (
(355,0,l),
(355,506,l),
(355,506,o),
(588,736,o),
(588,736,q),
(1122,0,l),
(1363,0,l),
(720,872,l),
(720,872,o),
(720,872,q),
(720,872,o),
(720,872,o),
(720,872,q),
(909,1124,o),
(720,872,q),
(1335,1466,o),
(1335,1466,q),
(1335,1466,o),
(1335,1466,q),
(1335,1466,o),
(1335,1466,q),
(1072,1466,l),
(1072,1466,o),
(1072,1466,q),
(1072,1466,o),
(1072,1466,o),
(355,747,o),
(355,747,q),
(355,747,o),
(355,747,o),
(355,747,q),
(355,1466,l),
(161,1466,l),
(161,0,l)
);
}
);
width = 1366;
},
{
layerId = "127036BF-2D52-44F9-AC71-F87836DD5CF9";
shapes = (
{
closed = 1;
nodes = (
(355,0,l),
(355,506,l),
(355,506,o),
(588,736,o),
(588,736,q),
(1122,0,l),
(1363,0,l),
(720,872,l),
(720,872,o),
(720,872,q),
(720,872,o),
(720,872,o),
(720,872,q),
(909,1124,o),
(720,872,q),
(1335,1466,o),
(1335,1466,q),
(1335,1466,o),
(1335,1466,q),
(1335,1466,o),
(1335,1466,q),
(1072,1466,l),
(1072,1466,o),
(1072,1466,q),
(1072,1466,o),
(1072,1466,o),
(355,747,o),
(355,747,q),
(355,747,o),
(355,747,o),
(355,747,q),
(355,1466,l),
(161,1466,l),
(161,0,l)
);
}
);
width = 1366;
}
);
note = K;
unicode = 75;
},
{
glyphname = L;
layers = (
{
layerId = m01;
shapes = (
{
closed = 1;
nodes = (
(1066,173,l),
(344,173,l),
(344,1466,l),
(150,1466,l),
(150,0,l),
(1066,0,l)
);
}
);
width = 1139;
},
{
layerId = "D99AEC69-38CE-4900-973C-16B918F65192";
shapes = (
{
closed = 1;
nodes = (
(1066,173,l),
(344,173,l),
(344,1466,l),
(150,1466,l),
(150,0,l),
(1066,0,l)
);
}
);
width = 1139;
},
{
layerId = "127036BF-2D52-44F9-AC71-F87836DD5CF9";
shapes = (
{
closed = 1;
nodes = (
(1066,173,l),
(344,173,l),
(344,1466,l),
(150,1466,l),
(150,0,l),
(1066,0,l)
);
}
);
width = 1139;
}
);
note = L;
unicode = 76;
},
{
glyphname = M;
layers = (
{
layerId = m01;
shapes = (
{
closed = 1;
nodes = (
(339,1248,l),
(763,0,l),
(938,0,l),
(1364,1227,l),
(1364,0,l),
(1551,0,l),
(1551,1466,l),
(1290,1466,l),
(939,446,ls),
(886,291,o),
(861,211,q),
(839,283,o),
(791,428,qs),
(444,1466,l),
(152,1466,l),
(152,0,l),
(339,0,l)
);
}
);
width = 1706;
},
{
layerId = "D99AEC69-38CE-4900-973C-16B918F65192";
shapes = (
{
closed = 1;
nodes = (
(339,1248,l),
(763,0,l),
(938,0,l),
(1364,1227,l),
(1364,0,l),
(1551,0,l),
(1551,1466,l),
(1290,1466,l),
(939,446,ls),
(886,291,o),
(861,211,q),
(839,283,o),
(791,428,qs),
(444,1466,l),
(152,1466,l),
(152,0,l),
(339,0,l)
);
}
);
width = 1706;
},
{
layerId = "127036BF-2D52-44F9-AC71-F87836DD5CF9";
shapes = (
{
closed = 1;
nodes = (
(339,1248,l),
(763,0,l),
(938,0,l),
(1364,1227,l),
(1364,0,l),
(1551,0,l),
(1551,1466,l),
(1290,1466,l),
(939,446,ls),
(886,291,o),
(861,211,q),
(839,283,o),
(791,428,qs),
(444,1466,l),
(152,1466,l),
(152,0,l),
(339,0,l)
);
}
);
width = 1706;
}
);
note = M;
unicode = 77;
},
{
glyphname = N;
layers = (
{
layerId = m01;
shapes = (
{
closed = 1;
nodes = (
(342,1153,l),
(1112,0,l),
(1112,0,l),
(1311,0,l),
(1311,1466,l),
(1125,1466,l),
(1125,315,l),
(355,1467,l),
(354,1466,l),
(156,1466,l),
(156,0,l),
(342,0,l)
);
}
);
width = 1479;
},
{
layerId = "D99AEC69-38CE-4900-973C-16B918F65192";
shapes = (
{
closed = 1;
nodes = (
(342,637,l),
(1112,636,l),
(1112,0,l),
(1311,0,l),
(1311,1466,l),
(1125,1466,l),
(1125,811,l),
(355,811,l),
(354,1466,l),
(156,1466,l),
(156,0,l),
(342,0,l)
);
}
);
width = 1479;
},
{
layerId = "127036BF-2D52-44F9-AC71-F87836DD5CF9";
shapes = (
{
closed = 1;
nodes = (
(342,1,l),
(1112,1151,l),
(1112,0,l),
(1311,0,l),
(1311,1466,l),
(1125,1466,l),
(1125,1466,l),
(355,315,l),
(354,1466,l),
(156,1466,l),
(156,0,l),
(342,0,l)
);
}
);
width = 1479;
}
);
note = N;
unicode = 78;
},
{
glyphname = O;
layers = (
{
layerId = m01;
shapes = (
{
closed = 1;
nodes = (
(99,521,o),
(267,175,o),
(593,-25,o),
(800,-25,qs),
(991,-25,o),
(1321,156,o),
(1501,508,o),
(1501,731,qs),
(1501,951,o),
(1330,1298,o),
(1004,1492,o),
(801,1492,qs),
(491,1492,o),
(99,1079,o),
(99,714,qs)
);
},
{
closed = 1;
nodes = (
(299,1042,o),
(596,1325,o),
(802,1325,qs),
(947,1325,o),
(1180,1178,o),
(1301,911,o),
(1301,732,qs),
(1301,449,o),
(1018,141,o),
(799,141,qs),
(584,141,o),
(299,446,o),
(299,711,qs)
);
},
{
closed = 1;
nodes = (
(487,714,l),
(1113,714,l),
(1113,714,l),
(487,714,l)
);
}
);
width = 1593;
},
{
layerId = "127036BF-2D52-44F9-AC71-F87836DD5CF9";
shapes = (
{
closed = 1;
nodes = (
(99,521,o),
(267,175,o),
(593,-25,o),
(800,-25,qs),
(991,-25,o),
(1321,156,o),
(1501,508,o),
(1501,731,qs),
(1501,951,o),
(1330,1298,o),
(1004,1492,o),
(801,1492,qs),
(491,1492,o),
(99,1079,o),
(99,714,qs)
);
},
{
closed = 1;
nodes = (
(299,1042,o),
(596,1325,o),
(802,1325,qs),
(947,1325,o),
(1180,1178,o),
(1301,911,o),
(1301,732,qs),
(1301,449,o),
(1018,141,o),
(799,141,qs),
(584,141,o),
(299,446,o),
(299,711,qs)
);
},
{
closed = 1;
nodes = (
(487,626,l),
(1113,626,l),
(1113,786,l),
(487,786,l)
);
}
);
width = 1593;
},
{
layerId = "D99AEC69-38CE-4900-973C-16B918F65192";
shapes = (
{
closed = 1;
nodes = (
(99,521,o),
(267,175,o),
(593,-25,o),
(800,-25,qs),
(991,-25,o),
(1321,156,o),
(1501,508,o),
(1501,731,qs),
(1501,951,o),
(1330,1298,o),
(1004,1492,o),
(801,1492,qs),
(491,1492,o),
(99,1079,o),
(99,714,qs)
);
},
{
closed = 1;
nodes = (
(299,1042,o),
(596,1325,o),
(802,1325,qs),
(947,1325,o),
(1180,1178,o),
(1301,911,o),
(1301,732,qs),
(1301,449,o),
(1018,141,o),
(799,141,qs),
(584,141,o),
(299,446,o),
(299,711,qs)
);
},
{
closed = 1;
nodes = (
(487,714,l),
(1113,714,l),
(1113,714,l),
(487,714,l)
);
}
);
width = 1593;
}
);
note = O;
unicode = 79;
},
{
glyphname = P;
layers = (
{
layerId = m01;
shapes = (
{
closed = 1;
nodes = (
(352,596,l),
(728,596,ls),
(1039,596,o),
(1277,855,o),
(1277,1042,qs),
(1277,1151,o),
(1188,1333,o),
(1042,1434,o),
(934,1452,qs),
(857,1466,o),
(711,1466,qs),
(158,1466,l),
(158,0,l),
(352,0,l)
);
},
{
closed = 1;
nodes = (
(727,1293,ls),
(859,1293,o),
(908,1280,qs),
(984,1259,o),
(1077,1128,o),
(1077,1036,qs),
(1077,909,o),
(919,769,o),
(731,769,qs),
(352,769,l),
(352,1293,l)
);
}
);
width = 1366;
},
{
layerId = "D99AEC69-38CE-4900-973C-16B918F65192";
shapes = (
{
closed = 1;
nodes = (
(352,596,l),
(728,596,ls),
(1039,596,o),
(1277,855,o),
(1277,1042,qs),
(1277,1151,o),
(1188,1333,o),
(1042,1434,o),
(934,1452,qs),
(857,1466,o),
(711,1466,qs),
(158,1466,l),
(158,0,l),
(352,0,l)
);
},
{
closed = 1;
nodes = (
(727,1293,ls),
(859,1293,o),
(908,1280,qs),
(984,1259,o),
(1077,1128,o),
(1077,1036,qs),
(1077,909,o),
(919,769,o),
(731,769,qs),
(352,769,l),
(352,1293,l)
);
}
);
width = 1366;
},
{
layerId = "127036BF-2D52-44F9-AC71-F87836DD5CF9";
shapes = (
{
closed = 1;
nodes = (
(352,596,l),
(728,596,ls),
(1039,596,o),
(1277,855,o),
(1277,1042,qs),
(1277,1151,o),
(1188,1333,o),
(1042,1434,o),
(934,1452,qs),
(857,1466,o),
(711,1466,qs),
(158,1466,l),
(158,0,l),
(352,0,l)
);
},
{
closed = 1;
nodes = (
(727,1293,ls),
(859,1293,o),
(908,1280,qs),
(984,1259,o),
(1077,1128,o),
(1077,1036,qs),
(1077,909,o),
(919,769,o),
(731,769,qs),
(352,769,l),
(352,1293,l)
);
}
);
width = 1366;
}
);
note = P;
unicode = 80;
},
{
glyphname = Q;
layers = (
{
layerId = m01;
shapes = (
{
closed = 1;
nodes = (
(1380,264,o),
(1490,553,o),
(1490,734,qs),
(1490,952,o),
(1319,1299,o),
(993,1492,o),
(790,1492,qs),
(589,1492,o),
(264,1306,o),
(88,950,o),
(88,733,qs),
(88,515,o),
(263,167,o),
(587,-25,o),
(786,-25,qs),
(983,-25,o),
(1146,66,q),
(1303,-57,o),
(1461,-114,q),
(1518,21,l),
(1404,64,o),
(1269,157,q)
);
},
{
closed = 1;
nodes = (
(896,239,o),
(987,180,q),
(895,141,o),
(791,141,qs),
(571,141,o),
(288,447,o),
(288,733,qs),
(288,1028,o),
(574,1325,o),
(791,1325,qs),
(936,1325,o),
(1169,1178,o),
(1290,912,o),
(1290,734,qs),
(1290,421,o),
(1119,265,q),
(1010,358,o),
(842,405,q),
(795,264,l)
);
}
);
width = 1593;
},
{
layerId = "D99AEC69-38CE-4900-973C-16B918F65192";
shapes = (
{
closed = 1;
nodes = (
(1380,264,o),
(1490,553,o),
(1490,734,qs),
(1490,952,o),
(1319,1299,o),
(993,1492,o),
(790,1492,qs),
(589,1492,o),
(264,1306,o),
(88,950,o),
(88,733,qs),
(88,515,o),
(263,167,o),
(587,-25,o),
(786,-25,qs),
(983,-25,o),
(1146,66,q),
(1303,-57,o),
(1461,-114,q),
(1518,21,l),
(1404,64,o),
(1269,157,q)
);
},
{
closed = 1;
nodes = (
(896,239,o),
(987,180,q),
(895,141,o),
(791,141,qs),
(571,141,o),
(288,447,o),
(288,733,qs),
(288,1028,o),
(574,1325,o),
(791,1325,qs),
(936,1325,o),
(1169,1178,o),
(1290,912,o),
(1290,734,qs),
(1290,421,o),
(1119,265,q),
(1010,358,o),
(842,405,q),
(795,264,l)
);
}
);
width = 1593;
},
{
layerId = "127036BF-2D52-44F9-AC71-F87836DD5CF9";
shapes = (
{
closed = 1;
nodes = (
(1380,264,o),
(1490,553,o),
(1490,734,qs),
(1490,952,o),
(1319,1299,o),
(993,1492,o),
(790,1492,qs),
(589,1492,o),
(264,1306,o),
(88,950,o),
(88,733,qs),
(88,515,o),
(263,167,o),
(587,-25,o),
(786,-25,qs),
(983,-25,o),
(1146,66,q),
(1303,-57,o),
(1461,-114,q),
(1518,21,l),
(1404,64,o),
(1269,157,q)
);
},
{
closed = 1;
nodes = (
(896,239,o),
(987,180,q),
(895,141,o),
(791,141,qs),
(571,141,o),
(288,447,o),
(288,733,qs),
(288,1028,o),
(574,1325,o),
(791,1325,qs),
(936,1325,o),
(1169,1178,o),
(1290,912,o),
(1290,734,qs),
(1290,421,o),
(1119,265,q),
(1010,358,o),
(842,405,q),
(795,264,l)
);
}
);
width = 1593;
}
);
note = Q;
unicode = 81;
},
{
glyphname = R;
layers = (
{
layerId = m01;
shapes = (
{
closed = 1;
nodes = (
(1116,615,o),
(1218,726,qs),
(1337,856,o),
(1337,1041,qs),
(1337,1150,o),
(1293,1241,qs),
(1209,1414,o),
(995,1452,qs),
(916,1466,o),
(771,1466,qs),
(352,1466,l),
(352,1466,l),
(158,1466,l),
(158,0,l),
(352,0,l),
(352,596,l),
(644,596,l),
(1197,0,l),
(1453,0,l),
(874,599,l)
);
},
{
closed = 1;
nodes = (
(1137,769,o),
(791,769,qs),
(352,769,l),
(352,1293,l),
(787,1293,ls),
(919,1293,o),
(969,1279,qs),
(1049,1256,o),
(1095,1187,qs),
(1137,1122,o),
(1137,1035,qs)
);
}
);
width = 1479;
},
{
layerId = "D99AEC69-38CE-4900-973C-16B918F65192";
shapes = (
{
closed = 1;
nodes = (
(1086,529,o),
(1188,640,qs),
(1307,770,o),
(1307,955,qs),
(1307,1064,o),
(1263,1155,qs),
(1179,1328,o),
(965,1366,qs),
(886,1380,o),
(741,1380,qs),
(352,1380,l),
(352,1466,l),
(158,1466,l),
(158,0,l),
(352,0,l),
(352,510,l),
(614,510,l),
(1152,-159,l),
(1408,-159,l),
(844,513,l)
);
},
{
closed = 1;
nodes = (
(1107,683,o),
(774.223,683,qs),
(352,683,l),
(352,1207,l),
(757,1207,ls),
(889,1207,o),
(939,1193,qs),
(1019,1170,o),
(1065,1101,qs),
(1107,1036,o),
(1107,949,qs)
);
}
);
width = 1479;
},
{
layerId = "127036BF-2D52-44F9-AC71-F87836DD5CF9";
shapes = (
{
closed = 1;
nodes = (
(1056,442,o),
(1158,553,qs),
(1277,683,o),
(1277,868,qs),
(1277,977,o),
(1233,1068,qs),
(1149,1241,o),
(935,1279,qs),
(856,1293,o),
(711,1293,qs),
(352,1293,l),
(352,1466,l),
(158,1466,l),
(158,0,l),
(352,0,l),
(352,423,l),
(584,423,l),
(1106,-319,l),
(1362,-319,l),
(814,426,l)
);
},
{
closed = 1;
nodes = (
(1077,596,o),
(757.446,596,qs),
(352,596,l),
(352,1120,l),
(727,1120,ls),
(859,1120,o),
(909,1106,qs),
(989,1083,o),
(1035,1014,qs),
(1077,949,o),
(1077,862,qs)
);
}
);
width = 1479;
}
);
note = R;
unicode = 82;
},
{
glyphname = S;
layers = (
{
layerId = m01;
shapes = (
{
closed = 1;
nodes = (
(96,324,o),
(249,91,o),
(518,-25,o),
(717,-25,qs),
(874,-25,o),
(1125,90,o),
(1259,297,o),
(1259,414,qs),
(1259,532,o),
(1137,713,o),
(1009,772,qs),
(921,812,o),
(448,919,o),
(392,970,qs),
(335,1021,o),
(335,1100,qs),
(335,1191,o),
(496,1320,o),
(672,1320,qs),
(841,1320,o),
(1014,1178,o),
(1029,1039,q),
(1215,1053,l),
(1210,1182,o),
(1076,1386,o),
(827,1491,o),
(664,1491,qs),
(516,1491,o),
(274,1391,o),
(148,1198,o),
(148,1087,qs),
(148,986,o),
(251,823,o),
(356,768,qs),
(437,725,o),
(841,628,o),
(900,605,qs),
(992,570,o),
(1072,467,o),
(1072,398,qs),
(1072,330,o),
(989,215,o),
(819,149,o),
(708,149,qs),
(583,149,o),
(383,236,o),
(288,377,o),
(275,487,q),
(92,471,l)
);
}
);
width = 1256;
},
{
layerId = "D99AEC69-38CE-4900-973C-16B918F65192";
shapes = (
{
closed = 1;
nodes = (
(96,324,o),
(249,91,o),
(518,-25,o),
(717,-25,qs),
(874,-25,o),
(1125,90,o),
(1259,297,o),
(1259,414,qs),
(1259,532,o),
(1137,713,o),
(1009,772,qs),
(921,812,o),
(448,919,o),
(392,970,qs),
(335,1021,o),
(335,1100,qs),
(335,1191,o),
(496,1320,o),
(672,1320,qs),
(841,1320,o),
(1014,1178,o),
(1029,1039,q),
(1215,1053,l),
(1210,1182,o),
(1076,1386,o),
(827,1491,o),
(664,1491,qs),
(516,1491,o),
(274,1391,o),
(148,1198,o),
(148,1087,qs),
(148,986,o),
(251,823,o),
(356,768,qs),
(437,725,o),
(841,628,o),
(900,605,qs),
(992,570,o),
(1072,467,o),
(1072,398,qs),
(1072,330,o),
(989,215,o),
(819,149,o),
(708,149,qs),
(583,149,o),
(383,236,o),
(288,377,o),
(275,487,q),
(92,471,l)
);
}
);
width = 1256;
},
{
layerId = "127036BF-2D52-44F9-AC71-F87836DD5CF9";
shapes = (
{
closed = 1;
nodes = (
(96,324,o),
(249,91,o),
(518,-25,o),
(717,-25,qs),
(874,-25,o),
(1125,90,o),
(1259,297,o),
(1259,414,qs),
(1259,532,o),
(1137,713,o),
(1009,772,qs),
(921,812,o),
(448,919,o),
(392,970,qs),
(335,1021,o),
(335,1100,qs),
(335,1191,o),
(496,1320,o),
(672,1320,qs),
(841,1320,o),
(1014,1178,o),
(1029,1039,q),
(1215,1053,l),
(1210,1182,o),
(1076,1386,o),
(827,1491,o),
(664,1491,qs),
(516,1491,o),
(274,1391,o),
(148,1198,o),
(148,1087,qs),
(148,986,o),
(251,823,o),
(356,768,qs),
(437,725,o),
(841,628,o),
(900,605,qs),
(992,570,o),
(1072,467,o),
(1072,398,qs),
(1072,330,o),
(989,215,o),
(819,149,o),
(708,149,qs),
(583,149,o),
(383,236,o),
(288,377,o),
(275,487,q),
(92,471,l)
);
}
);
width = 1256;
}
);
note = S;
unicode = 83;
},
{
glyphname = T;
layers = (
{
layerId = m01;
shapes = (
{
closed = 1;
nodes = (
(725,1293,l),
(1210,1293,l),
(1210,1466,l),
(48,1466,l),
(48,1293,l),
(531,1293,l),
(531,0,l),
(725,0,l)
);
}
);
width = 1251;
},
{
layerId = "D99AEC69-38CE-4900-973C-16B918F65192";
shapes = (
{
closed = 1;
nodes = (
(540,1293,l),
(1159,1293,l),
(1159,1466,l),
(105,1466,l),
(105,1293,l),
(346,1293,l),
(346,0,l),
(540,0,l)
);
}
);
width = 1251;
},
{
layerId = "127036BF-2D52-44F9-AC71-F87836DD5CF9";
shapes = (
{
closed = 1;
nodes = (
(355,1293,l),
(1108,1293,l),
(1108,1466,l),
(161,1466,l),
(161,1293,l),
(161,1293,l),
(161,0,l),
(355,0,l)
);
}
);
width = 1251;
}
);
note = T;
unicode = 84;
},
{
glyphname = U;
layers = (
{
layerId = m01;
shapes = (
{
closed = 1;
nodes = (
(159,339,o),
(305,77,o),
(559,-25,o),
(741,-25,q),
(741,-25,l),
(741,-25,l),
(741,-25,l),
(995,-25,o),
(1312,246,o),
(1312,570,q),
(1312,565,l),
(1312,599,l),
(1312,1466,l),
(1117,1466,l),
(1117,570,ls),
(1117,353,o),
(933,151,o),
(739,151,q),
(739,151,l),
(552,151,o),
(353,342,o),
(353,570,qs),
(353,1466,l),
(159,1466,l),
(159,568,ls)
);
}
);
width = 1479;
},
{
layerId = "D99AEC69-38CE-4900-973C-16B918F65192";
shapes = (
{
closed = 1;
nodes = (
(159,426,o),
(159,284,o),
(159,142,o),
(159,0,q),
(1274,0,l),
(1274,0,l),
(1446,0,l),
(1446,57,o),
(1446,114,o),
(1446,173,q),
(1312,173,l),
(1312,570,l),
(1312,1466,l),
(1117,1466,l),
(1117,570,ls),
(1117,439,o),
(1117,308,o),
(1117,173,q),
(353,173,l),
(353,304,o),
(353,435,o),
(353,570,qs),
(353,1466,l),
(159,1466,l),
(159,568,ls)
);
}
);
width = 1479;
},
{
layerId = "127036BF-2D52-44F9-AC71-F87836DD5CF9";
shapes = (
{
closed = 1;
nodes = (
(159,426,o),
(159,284,o),
(159,142,o),
(159,0,q),
(1274,0,l),
(1274,-407,l),
(1446,-407,l),
(1446,-216,o),
(1446,-24,o),
(1446,173,q),
(1312,173,l),
(1312,570,l),
(1312,1466,l),
(1117,1466,l),
(1117,570,ls),
(1117,439,o),
(1117,308,o),
(1117,173,q),
(353,173,l),
(353,304,o),
(353,435,o),
(353,570,qs),
(353,1466,l),
(159,1466,l),
(159,568,ls)
);
}
);
width = 1479;
}
);
note = U;
unicode = 85;
},
{
glyphname = V;
layers = (
{
layerId = m01;
shapes = (
{
closed = 1;
nodes = (
(1350,1466,l),
(1152,1466,l),
(756,401,ls),
(711,281,o),
(677,161,q),
(646,273,o),
(600,401,qs),
(219,1466,l),
(9,1466,l),
(577,0,l),
(776,0,l)
);
}
);
width = 1366;
},
{
layerId = "D99AEC69-38CE-4900-973C-16B918F65192";
shapes = (
{
closed = 1;
nodes = (
(1350,1466,l),
(1152,1466,l),
(756,401,ls),
(711,281,o),
(677,161,q),
(646,273,o),
(600,401,qs),
(219,1466,l),
(9,1466,l),
(577,0,l),
(776,0,l)
);
}
);
width = 1366;
},
{
layerId = "127036BF-2D52-44F9-AC71-F87836DD5CF9";
shapes = (
{
closed = 1;
nodes = (
(1350,1466,l),
(1152,1466,l),
(756,401,ls),
(711,281,o),
(677,161,q),
(646,273,o),
(600,401,qs),
(219,1466,l),
(9,1466,l),
(577,0,l),
(776,0,l)
);
}
);
width = 1366;
}
);
note = V;
unicode = 86;
},
{
glyphname = W;
layers = (
{
layerId = m01;
shapes = (
{
closed = 1;
nodes = (
(966,1289,l),
(966,1289,o),
(966,1289,q),
(966,1289,o),
(966,1289,q),
(1321,0,l),
(1508,0,l),
(1910,1466,l),
(1715,1466,l),
(1412,205,l),
(1412,205,o),
(1412,205,q),
(1166,1190,o),
(1088,1466,q),
(1088,1466,l),
(854,1466,l),
(854,1466,l),
(845,1430,o),
(509,205,q),
(509,205,o),
(509,205,q),
(224,1466,l),
(25,1466,l),
(414,0,l),
(612,0,l)
);
}
);
width = 1933;
},
{
layerId = "D99AEC69-38CE-4900-973C-16B918F65192";
shapes = (
{
closed = 1;
nodes = (
(1058,645,l),
(1061,645,o),
(956,645,qs),
(846,645,o),
(849,645,q),
(1360,0,l),
(1613,0,l),
(1814,1466,l),
(1619,1466,l),
(1468,189,l),
(1468,189,o),
(1468,189,q),
(1062,700,o),
(1062,700,q),
(1062,1466,l),
(848,1466,l),
(848,700,l),
(848,700,o),
(432,189,q),
(432,189,o),
(432,189,q),
(290,1466,l),
(93,1466,l),
(288,0,l),
(548,0,l)
);
}
);
width = 1933;
},
{
layerId = "127036BF-2D52-44F9-AC71-F87836DD5CF9";
shapes = (
{
closed = 1;
nodes = (
(1150,0,ls),
(1156,0,o),
(945,0,qs),
(726,0,o),
(732,0,qs),
(1399,0,l),
(1717,0,l),
(1718,1466,l),
(1523,1466,l),
(1523,173,l),
(1523,173,o),
(1523,173,q),
(1036,173,o),
(1036,173,q),
(1036,1466,l),
(842,1466,l),
(842,173,l),
(842,173,o),
(355,173,q),
(355,173,o),
(355,173,q),
(355,1466,l),
(161,1466,l),
(161,0,l),
(483,0,l)
);
}
);
width = 1933;
}
);
note = W;
unicode = 87;
},
{
glyphname = X;
layers = (
{
layerId = m01;
shapes = (
{
closed = 1;
nodes = (
(610,511,ls),
(631,541,o),
(680,621,q),
(713,568,o),
(744,523,qs),
(1113,0,l),
(1353,0,l),
(798,775,l),
(1313,1466,l),
(1102,1466,l),
(807,1077,ls),
(740,990,o),
(691,910,q),
(656,973,o),
(573,1090,qs),
(307,1466,l),
(76,1466,l),
(576,764,l),
(9,0,l),
(242,0,l)
);
}
);
width = 1366;
},
{
layerId = "D99AEC69-38CE-4900-973C-16B918F65192";
shapes = (
{
closed = 1;
nodes = (
(610,511,ls),
(631,541,o),
(680,621,q),
(713,568,o),
(744,523,qs),
(1113,0,l),
(1353,0,l),
(798,775,l),
(1313,1466,l),
(1102,1466,l),
(807,1077,ls),
(740,990,o),
(691,910,q),
(656,973,o),
(573,1090,qs),
(307,1466,l),
(76,1466,l),
(576,764,l),
(9,0,l),
(242,0,l)
);
}
);
width = 1366;
},
{
layerId = "127036BF-2D52-44F9-AC71-F87836DD5CF9";
shapes = (
{
closed = 1;
nodes = (
(610,511,ls),
(631,541,o),
(680,621,q),
(713,568,o),
(744,523,qs),
(1113,0,l),
(1353,0,l),
(798,775,l),
(1313,1466,l),
(1102,1466,l),
(807,1077,ls),
(740,990,o),
(691,910,q),
(656,973,o),
(573,1090,qs),
(307,1466,l),
(76,1466,l),
(576,764,l),
(9,0,l),
(242,0,l)
);
}
);
width = 1366;
}
);
note = X;
unicode = 88;
},
{
glyphname = Y;
layers = (
{
layerId = m01;
shapes = (
{
closed = 1;
nodes = (
(765,0,l),
(765,145,o),
(765,290,o),
(765,434,o),
(765,579,qs),
(765,600,o),
(765,621,q),
(1350,1466,l),
(1124,1466,l),
(680,776,l),
(680,776,o),
(680,776,q),
(680,776,o),
(680,776,q),
(242,1466,l),
(6,1466,l),
(571,621,l),
(571,609,ls),
(571,457,o),
(571,305,o),
(571,152,o),
(571,0,q)
);
}
);
width = 1366;
},
{
layerId = "D99AEC69-38CE-4900-973C-16B918F65192";
shapes = (
{
closed = 1;
nodes = (
(203,15,l),
(353,-28,o),
(530,31,o),
(632,184,o),
(702,344,qs),
(752,457,o),
(794,541,q),
(1295,1466,l),
(1082,1466,l),
(684,718,l),
(684,718,o),
(684,718,q),
(684,718,o),
(684,718,q),
(226,1466,l),
(6,1466,l),
(597,506,l),
(575,450,ls),
(524,320,o),
(446,188,o),
(311,137,o),
(203,181,q)
);
}
);
width = 1366;
},
{
layerId = "127036BF-2D52-44F9-AC71-F87836DD5CF9";
shapes = (
{
closed = 1;
nodes = (
(203,15,l),
(369,-33,o),
(549,3,o),
(652,140,o),
(731,304,qs),
(770,384,o),
(794,431,qs),
(1295,1466,l),
(1082,1466,l),
(684,608,l),
(684,608,o),
(684,608,q),
(684,608,o),
(684,608,q),
(226,1466,l),
(6,1466,l),
(597,396,l),
(575,342,ls),
(532,240,o),
(449,145,o),
(316,135,o),
(203,181,q)
);
}
);
width = 1366;
}
);
note = Y;
unicode = 89;
},
{
glyphname = Z;
layers = (
{
layerId = m01;
shapes = (
{
closed = 1;
nodes = (
(1200,173,l),
(264,173,l),
(353,276,l),
(1176,1293,l),
(1176,1466,l),
(126,1466,l),
(126,1293,l),
(944,1293,l),
(872,1219,o),
(792,1119,qs),
(41,180,l),
(41,0,l),
(1200,0,l)
);
}
);
width = 1251;
},
{
layerId = "D99AEC69-38CE-4900-973C-16B918F65192";
shapes = (
{
closed = 1;
nodes = (
(1200,173,l),
(264,173,l),
(353,276,l),
(1176,1293,l),
(1176,1466,l),
(126,1466,l),
(126,1293,l),
(944,1293,l),
(872,1219,o),
(792,1119,qs),
(41,180,l),
(41,0,l),
(1200,0,l)
);
}
);
width = 1251;
},
{
layerId = "127036BF-2D52-44F9-AC71-F87836DD5CF9";
shapes = (
{
closed = 1;
nodes = (
(1200,173,l),
(264,173,l),
(353,276,l),
(1176,1293,l),
(1176,1466,l),
(126,1466,l),
(126,1293,l),
(944,1293,l),
(872,1219,o),
(792,1119,qs),
(41,180,l),
(41,0,l),
(1200,0,l)
);
}
);
width = 1251;
}
);
note = Z;
unicode = 90;
},
{
glyphname = a;
layers = (
{
layerId = m01;
shapes = (
{
closed = 1;
nodes = (
(923,917,o),
(923,882,q),
(855,985,o),
(644,1086,o),
(519,1086,qs),
(317,1086,o),
(72,797,o),
(72,533,qs),
(72,276,o),
(316,-24,o),
(516,-24,qs),
(840,-24,o),
(923,194,q),
(923,0,o),
(923,0,q),
(1077,0,l),
(1077,0,o),
(1077,531,qs),
(1077,842,o),
(1077,1062,q),
(923,1062,l)
);
},
{
closed = 1;
nodes = (
(694,937,o),
(849,737,o),
(849,541,qs),
(849,339,o),
(683,124,o),
(559,124,qs),
(432,124,o),
(270,342,o),
(270,533,qs),
(270,729,o),
(440,937,o),
(569,937,qs)
);
}
);
width = 1184;
},
{
layerId = "127036BF-2D52-44F9-AC71-F87836DD5CF9";
shapes = (
{
closed = 1;
nodes = (
(877,917,o),
(870,882,q),
(802,985,o),
(644,1086,o),
(519,1086,qs),
(317,1086,o),
(72,797,o),
(72,533,qs),
(72,276,o),
(316,-24,o),
(516,-24,qs),
(780,-24,o),
(863,194,q),
(885,100,o),
(928,0,q),
(1107,0,l),
(1048,145,o),
(978,531,q),
(1037,842,o),
(1107,1062,q),
(923,1062,l)
);
},
{
closed = 1;
nodes = (
(674,937,o),
(829,737,o),
(829,541,qs),
(829,339,o),
(663,124,o),
(539,124,qs),
(412,124,o),
(270,342,o),
(270,533,qs),
(270,729,o),
(420,937,o),
(549,937,qs)
);
}
);
width = 1184;
},
{
layerId = "D99AEC69-38CE-4900-973C-16B918F65192";
shapes = (
{
closed = 1;
nodes = (
(923,917,o),
(923,882,q),
(855,985,o),
(644,1086,o),
(519,1086,qs),
(317,1086,o),
(72,797,o),
(72,533,qs),
(72,276,o),
(316,-24,o),
(516,-24,qs),
(840,-24,o),
(923,194,q),
(923,0,o),
(923,0,q),
(1077,0,l),
(1077,0,o),
(1077,531,qs),
(1077,842,o),
(1077,1062,q),
(923,1062,l)
);
},
{
closed = 1;
nodes = (
(694,937,o),
(849,737,o),
(849,541,qs),
(849,339,o),
(683,124,o),
(559,124,qs),
(432,124,o),
(270,342,o),
(270,533,qs),
(270,729,o),
(440,937,o),
(569,937,qs)
);
}
);
width = 1184;
}
);
note = a;
unicode = 97;
},
{
glyphname = b;
layers = (
{
layerId = m01;
shapes = (
{
closed = 1;
nodes = (
(408,-24,o),
(596,-24,qs),
(785,-24,o),
(1055,274,o),
(1055,547,qs),
(1055,662,o),
(991,864,o),
(878,1007,o),
(703,1086,o),
(605,1086,qs),
(428,1086,o),
(314,943,q),
(314,1466,l),
(134,1466,l),
(134,0,l),
(301,0,l),
(301,133,l)
);
},
{
closed = 1;
nodes = (
(299,733,o),
(471,938,o),
(589,938,qs),
(706,938,o),
(871,740,o),
(871,532,qs),
(871,329,o),
(699,124,o),
(581,124,qs),
(436,124,o),
(351,263,qs),
(299,348,o),
(299,539,qs)
);
}
);
width = 1139;
},
{
layerId = "D99AEC69-38CE-4900-973C-16B918F65192";
shapes = (
{
closed = 1;
nodes = (
(408,-24,o),
(596,-24,qs),
(785,-24,o),
(1055,274,o),
(1055,547,qs),
(1055,662,o),
(991,864,o),
(878,1007,o),
(703,1086,o),
(605,1086,qs),
(428,1086,o),
(314,943,q),
(314,1466,l),
(134,1466,l),
(134,0,l),
(301,0,l),
(301,133,l)
);
},
{
closed = 1;
nodes = (
(299,733,o),
(471,938,o),
(589,938,qs),
(706,938,o),
(871,740,o),
(871,532,qs),
(871,329,o),
(699,124,o),
(581,124,qs),
(436,124,o),
(351,263,qs),
(299,348,o),
(299,539,qs)
);
}
);
width = 1139;
},
{
layerId = "127036BF-2D52-44F9-AC71-F87836DD5CF9";
shapes = (
{
closed = 1;
nodes = (
(408,-24,o),
(596,-24,qs),
(785,-24,o),
(1055,274,o),
(1055,547,qs),
(1055,662,o),
(991,864,o),
(878,1007,o),
(703,1086,o),
(605,1086,qs),
(428,1086,o),
(314,943,q),
(314,1466,l),
(134,1466,l),
(134,0,l),
(301,0,l),
(301,133,l)
);
},
{
closed = 1;
nodes = (
(299,733,o),
(471,938,o),
(589,938,qs),
(706,938,o),
(871,740,o),
(871,532,qs),
(871,329,o),
(699,124,o),
(581,124,qs),
(436,124,o),
(351,263,qs),
(299,348,o),
(299,539,qs)
);
}
);
width = 1139;
}
);
note = b;
unicode = 98;
},
{
glyphname = c;
layers = (
{
layerId = m01;
shapes = (
{
closed = 1;
nodes = (
(809,254,o),
(667,124,o),
(561,124,qs),
(429,124,o),
(265,318,o),
(265,532,qs),
(265,743,o),
(435,938,o),
(571,938,qs),
(661,938,o),
(788,830,o),
(813,723,q),
(988,750,l),
(957,911,o),
(737,1086,o),
(564,1086,qs),
(427,1086,o),
(194,957,o),
(80,699,o),
(80,527,qs),
(80,261,o),
(345,-24,o),
(563,-24,qs),
(737,-24,o),
(976,183,o),
(1005,366,q),
(828,389,l)
);
}
);
width = 1024;
},
{
layerId = "D99AEC69-38CE-4900-973C-16B918F65192";
shapes = (
{
closed = 1;
nodes = (
(809,254,o),
(667,124,o),
(561,124,qs),
(429,124,o),
(265,318,o),
(265,532,qs),
(265,743,o),
(435,938,o),
(571,938,qs),
(661,938,o),
(788,830,o),
(813,723,q),
(988,750,l),
(957,911,o),
(737,1086,o),
(564,1086,qs),
(427,1086,o),
(194,957,o),
(80,699,o),
(80,527,qs),
(80,261,o),
(345,-24,o),
(563,-24,qs),
(737,-24,o),
(976,183,o),
(1005,366,q),
(828,389,l)
);
}
);
width = 1024;
},
{
layerId = "127036BF-2D52-44F9-AC71-F87836DD5CF9";
shapes = (
{
closed = 1;
nodes = (
(809,254,o),
(667,124,o),
(561,124,qs),
(429,124,o),
(265,318,o),
(265,532,qs),
(265,743,o),
(435,938,o),
(571,938,qs),
(661,938,o),
(788,830,o),
(813,723,q),
(988,750,l),
(957,911,o),
(737,1086,o),
(564,1086,qs),
(427,1086,o),
(194,957,o),
(80,699,o),
(80,527,qs),
(80,261,o),
(345,-24,o),
(563,-24,qs),
(737,-24,o),
(976,183,o),
(1005,366,q),
(828,389,l)
);
}
);
width = 1024;
}
);
note = c;
unicode = 99;
},
{
glyphname = d;
layers = (
{
layerId = m01;
shapes = (
{
closed = 1;
nodes = (
(812,1190,o),
(812,940,q),
(609,1175,o),
(72,917,o),
(72,516,qs),
(72,296,o),
(319,-24,o),
(548,-24,qs),
(723,-24,o),
(993,359,o),
(993,520,qs),
(993,713,o),
(991,839,o),
(991,1071,qs),
(991,1190,o),
(991,1320,q),
(991,1320,l),
(991,1466,l),
(812,1466,l),
(812,1336,ls)
);
},
{
closed = 1;
nodes = (
(256,699,o),
(395,936,o),
(533,936,qs),
(668,936,o),
(827,723,o),
(827,515,qs),
(827,312,o),
(662,124,o),
(544,124,qs),
(436,124,o),
(256,331,o),
(256,514,qs)
);
},
{
closed = 1;
nodes = (
(993,515,l),
(854,515,l)
);
},
{
closed = 1;
nodes = (
(829,0,l),
(993,0,l),
(993,579,l),
(829,579,l)
);
}
);
width = 1139;
},
{
layerId = "D99AEC69-38CE-4900-973C-16B918F65192";
shapes = (
{
closed = 1;
nodes = (
(664,994,o),
(664,994,q),
(404,1080,o),
(72,772,o),
(72,516,qs),
(72,296,o),
(320,-24,o),
(565,-24,qs),
(789,-24,o),
(1031,337,o),
(1031,520,qs),
(1031,689,o),
(966,858,o),
(860,1062,qs),
(782,1212,o),
(734,1320,q),
(975,1320,l),
(975,1466,l),
(493,1466,l),
(493,1336,l)
);
},
{
closed = 1;
nodes = (
(256,677,o),
(421,909,o),
(570,909,qs),
(705,909,o),
(855,703,o),
(855,515,qs),
(855,312,o),
(696,124,o),
(574,124,qs),
(435,124,o),
(256,344,o),
(256,514,qs)
);
},
{
closed = 1;
nodes = (
(1031,515,l),
(904,515,l)
);
},
{
closed = 1;
nodes = (
(899,303,l),
(1023,455,l),
(1023,579,l),
(899,579,l)
);
}
);
width = 1139;
},
{
layerId = "127036BF-2D52-44F9-AC71-F87836DD5CF9";
shapes = (
{
closed = 1;
nodes = (
(423,1113,o),
(516,1048,q),
(334,1041,o),
(72,772,o),
(72,516,qs),
(72,296,o),
(320,-24,o),
(565,-24,qs),
(789,-24,o),
(1068,261,o),
(1068,520,qs),
(1068,713,o),
(918,939,o),
(728,1071,qs),
(515,1218,o),
(415,1320,q),
(975,1320,l),
(975,1466,l),
(174,1466,l),
(174,1336,l)
);
},
{
closed = 1;
nodes = (
(256,677,o),
(421,909,o),
(570,909,qs),
(705,909,o),
(883,703,o),
(883,515,qs),
(883,312,o),
(696,124,o),
(574,124,qs),
(435,124,o),
(256,344,o),
(256,514,qs)
);
},
{
closed = 1;
nodes = (
(1068,515,l),
(904,515,l)
);
},
{
closed = 1;
nodes = (
(899,303,l),
(1063,455,l),
(1063,579,l),
(899,579,l)
);
}
);
width = 1188;
}
);
note = d;
unicode = 100;
},
{
glyphname = e;
layers = (
{
layerId = m01;
shapes = (
{
closed = 1;
nodes = (
(1053,1086,o),
(608,1086,qs),
(429,1086,o),
(232,969,o),
(161,869,qs),
(93,774,o),
(75,549,q),
(82,366,o),
(112,286,qs),
(173,124,o),
(422,-24,o),
(604,-24,qs),
(930,-24,o),
(1048,319,q),
(862,342,l),
(767,124,o),
(610,124,qs),
(420,124,o),
(261,354,o),
(261,485,q),
(261,485,o),
(261,485,o),
(261,485,q),
(277,485,o),
(864,483,q),
(864,634,l),
(271,633,o),
(271,633,q),
(271,743,o),
(430,937,o),
(568,937,qs),
(710,937,o),
(864,743,o),
(864,634,qs),
(864,563,o),
(864,483,q),
(1053,485,l)
);
}
);
width = 1138;
},
{
layerId = "D99AEC69-38CE-4900-973C-16B918F65192";
shapes = (
{
closed = 1;
nodes = (
(870,1086,o),
(545,1086,qs),
(365,1086,o),
(180,933,o),
(144,824,q),
(110,703,o),
(175,549,q),
(90,420,o),
(105,289,q),
(136,145,o),
(352,-24,o),
(537,-24,qs),
(819,-24,o),
(958,233,q),
(800,299,l),
(691,124,o),
(542,124,qs),
(409,124,o),
(273,288,o),
(273,389,qs),
(273,423,o),
(329,478,o),
(400,478,qs),
(416,478,o),
(726,477,q),
(726,628,l),
(330,627,o),
(322,627,q),
(286,726,o),
(366,872,o),
(435,893,q),
(484,920,o),
(655,920,o),
(720,858,qs),
(769,808,o),
(797,666,q),
(941,714,l)
);
}
);
width = 1058;
},
{
layerId = "127036BF-2D52-44F9-AC71-F87836DD5CF9";
shapes = (
{
closed = 1;
nodes = (
(687,1086,o),
(481,1086,qs),
(301,1086,o),
(127,897,o),
(127,778,qs),
(127,632,o),
(274,549,q),
(98,473,o),
(98,292,qs),
(98,166,o),
(282,-24,o),
(469,-24,qs),
(707,-24,o),
(867,146,q),
(738,255,l),
(615,124,o),
(474,124,qs),
(397,124,o),
(285,221,o),
(285,292,qs),
(285,361,o),
(396,471,o),
(539,471,qs),
(555,471,o),
(587,470,q),
(587,621,l),
(552,620,o),
(537,620,qs),
(421,620,o),
(301,713,o),
(301,783,qs),
(301,837,o),
(382,931,o),
(470,931,qs),
(577,931,o),
(700,838,q),
(829,942,l)
);
}
);
width = 913;
}
);
note = e;
unicode = 101;
},
{
glyphname = f;
layers = (
{
layerId = m01;
shapes = (
{
closed = 1;
nodes = (
(357,922,l),
(564,922,l),
(564,1062,l),
(357,1062,l),
(357,1160,ls),
(357,1256,o),
(425,1326,o),
(507,1326,qs),
(557,1326,o),
(613,1316,q),
(640,1473,l),
(548,1491,o),
(472,1491,qs),
(354,1491,o),
(223,1404,o),
(197,1334,qs),
(178,1282,o),
(178,1175,qs),
(178,1062,l),
(19,1062,l),
(19,922,l),
(178,922,l),
(178,0,l),
(357,0,l)
);
}
);
width = 569;
},
{
layerId = "D99AEC69-38CE-4900-973C-16B918F65192";
shapes = (
{
closed = 1;
nodes = (
(357,922,l),
(564,922,l),
(564,1062,l),
(357,1062,l),
(357,1160,ls),
(357,1256,o),
(425,1326,o),
(507,1326,qs),
(557,1326,o),
(613,1316,q),
(640,1473,l),
(548,1491,o),
(472,1491,qs),
(354,1491,o),
(223,1404,o),
(197,1334,qs),
(178,1282,o),
(178,1175,qs),
(178,1062,l),
(19,1062,l),
(19,922,l),
(178,922,l),
(178,0,l),
(357,0,l)
);
}
);
width = 569;
},
{
layerId = "127036BF-2D52-44F9-AC71-F87836DD5CF9";
shapes = (
{
closed = 1;
nodes = (
(357,922,l),
(564,922,l),
(564,1062,l),
(357,1062,l),
(357,1160,ls),
(357,1256,o),
(425,1326,o),
(507,1326,qs),
(557,1326,o),
(613,1316,q),
(640,1473,l),
(548,1491,o),
(472,1491,qs),
(354,1491,o),
(223,1404,o),
(197,1334,qs),
(178,1282,o),
(178,1175,qs),
(178,1062,l),
(19,1062,l),
(19,922,l),
(178,922,l),
(178,0,l),
(357,0,l)
);
}
);
width = 569;
}
);
note = f;
unicode = 102;
},
{
glyphname = g;
layers = (
{
layerId = m01;
shapes = (
{
closed = 1;
nodes = (
(98,-260,o),
(332,-431,o),
(522,-431,qs),
(682,-431,o),
(901,-311,o),
(1002,-104,o),
(1002,144,qs),
(1002,1062,l),
(836,1062,l),
(836,934,l),
(714,1086,o),
(526,1086,qs),
(385,1086,o),
(176,946,o),
(66,689,o),
(66,537,qs),
(66,316,o),
(306,0,o),
(525,0,qs),
(701,0,o),
(819,139,q),
(820,-37,o),
(806,-92,qs),
(782,-182,o),
(646,-282,o),
(521,-282,qs),
(405,-282,o),
(338,-232,qs),
(288,-195,o),
(277,-114,q),
(102,-88,l)
);
},
{
closed = 1;
nodes = (
(251,742,o),
(419,937,o),
(539,937,qs),
(661,937,o),
(834,739,o),
(834,544,qs),
(834,340,o),
(666,149,o),
(542,149,qs),
(417,149,o),
(251,341,o),
(251,550,qs)
);
}
);
width = 1139;
},
{
layerId = "D99AEC69-38CE-4900-973C-16B918F65192";
shapes = (
{
closed = 1;
nodes = (
(98,-260,o),
(332,-431,o),
(522,-431,qs),
(682,-431,o),
(901,-311,o),
(1002,-104,o),
(1002,144,qs),
(1002,1062,l),
(836,1062,l),
(836,934,l),
(714,1086,o),
(526,1086,qs),
(385,1086,o),
(176,946,o),
(66,689,o),
(66,537,qs),
(66,316,o),
(306,0,o),
(525,0,qs),
(701,0,o),
(819,139,q),
(820,-37,o),
(806,-92,qs),
(782,-182,o),
(646,-282,o),
(521,-282,qs),
(405,-282,o),
(338,-232,qs),
(288,-195,o),
(277,-114,q),
(102,-88,l)
);
},
{
closed = 1;
nodes = (
(251,742,o),
(419,937,o),
(539,937,qs),
(661,937,o),
(834,739,o),
(834,544,qs),
(834,340,o),
(666,149,o),
(542,149,qs),
(417,149,o),
(251,341,o),
(251,550,qs)
);
}
);
width = 1139;
},
{
layerId = "127036BF-2D52-44F9-AC71-F87836DD5CF9";
shapes = (
{
closed = 1;
nodes = (
(98,-260,o),
(332,-431,o),
(522,-431,qs),
(682,-431,o),
(901,-311,o),
(1002,-104,o),
(1002,144,qs),
(1002,1062,l),
(836,1062,l),
(836,934,l),
(714,1086,o),
(526,1086,qs),
(385,1086,o),
(176,946,o),
(66,689,o),
(66,537,qs),
(66,316,o),
(306,0,o),
(525,0,qs),
(701,0,o),
(819,139,q),
(820,-37,o),
(806,-92,qs),
(782,-182,o),
(646,-282,o),
(521,-282,qs),
(405,-282,o),
(338,-232,qs),
(288,-195,o),
(277,-114,q),
(102,-88,l)
);
},
{
closed = 1;
nodes = (
(251,742,o),
(419,937,o),
(539,937,qs),
(661,937,o),
(834,739,o),
(834,544,qs),
(834,340,o),
(666,149,o),
(542,149,qs),
(417,149,o),
(251,341,o),
(251,550,qs)
);
}
);
width = 1139;
}
);
note = g;
unicode = 103;
},
{
glyphname = h;
layers = (
{
layerId = m01;
shapes = (
{
closed = 1;
nodes = (
(315,581,ls),
(315,706,o),
(375,848,o),
(516,931,o),
(596,931,qs),
(703,931,o),
(820,808,o),
(820,673,qs),
(820,0,l),
(1000,0,l),
(1000,673,ls),
(1000,829,o),
(925,993,o),
(751,1086,o),
(633,1086,qs),
(441,1086,o),
(315,940,q),
(315,1466,l),
(135,1466,l),
(135,0,l),
(315,0,l)
);
}
);
width = 1139;
},
{
layerId = "D99AEC69-38CE-4900-973C-16B918F65192";
shapes = (
{
closed = 1;
nodes = (
(315,581,ls),
(315,706,o),
(375,848,o),
(516,931,o),
(596,931,qs),
(703,931,o),
(820,808,o),
(820,673,qs),
(820,0,l),
(1000,0,l),
(1000,673,ls),
(1000,829,o),
(925,993,o),
(751,1086,o),
(633,1086,qs),
(441,1086,o),
(315,940,q),
(315,1466,l),
(135,1466,l),
(135,0,l),
(315,0,l)
);
}
);
width = 1139;
},
{
layerId = "127036BF-2D52-44F9-AC71-F87836DD5CF9";
shapes = (
{
closed = 1;
nodes = (
(315,581,ls),
(315,706,o),
(375,848,o),
(516,931,o),
(596,931,qs),
(703,931,o),
(820,808,o),
(820,673,qs),
(820,0,l),
(1000,0,l),
(1000,673,ls),
(1000,829,o),
(925,993,o),
(751,1086,o),
(633,1086,qs),
(441,1086,o),
(315,940,q),
(315,1466,l),
(135,1466,l),
(135,0,l),
(315,0,l)
);
}
);
width = 1139;
}
);
note = h;
unicode = 104;
},
{
glyphname = i;
layers = (
{
layerId = m01;
shapes = (
{
closed = 1;
nodes = (
(316,1466,l),
(136,1466,l),
(136,1259,l),
(316,1259,l)
);
},
{
closed = 1;
nodes = (
(316,1062,l),
(136,1062,l),
(136,0,l),
(316,0,l)
);
}
);
width = 455;
},
{
layerId = "127036BF-2D52-44F9-AC71-F87836DD5CF9";
shapes = (
{
closed = 1;
nodes = (
(316,1062,l),
(137,1062,l),
(137,855,l),
(316,855,l)
);
},
{
closed = 1;
nodes = (
(316,1062,l),
(136,1062,l),
(136,0,l),
(316,0,l)
);
}
);
width = 455;
},
{
layerId = "D99AEC69-38CE-4900-973C-16B918F65192";
shapes = (
{
closed = 1;
nodes = (
(316,1466,l),
(136,1466,l),
(136,1259,l),
(316,1259,l)
);
},
{
closed = 1;
nodes = (
(316,1062,l),
(136,1062,l),
(136,0,l),
(316,0,l)
);
}
);
width = 455;
}
);
note = i;
unicode = 105;
},
{
glyphname = j;
layers = (
{
layerId = m01;
shapes = (
{
closed = 1;
nodes = (
(314,1466,l),
(134,1466,l),
(134,1257,l),
(314,1257,l)
);
},
{
closed = 1;
nodes = (
(-26,-431,o),
(47,-431,qs),
(198,-431,o),
(263,-331,qs),
(314,-254,o),
(314,-58,qs),
(314,1062,l),
(134,1062,l),
(134,-54,ls),
(134,-200,o),
(80,-273,o),
(25,-273,qs),
(-6,-273,o),
(-60,-259,q),
(-94,-412,l)
);
}
);
width = 455;
},
{
layerId = "D99AEC69-38CE-4900-973C-16B918F65192";
shapes = (
{
closed = 1;
nodes = (
(314,1466,l),
(134,1466,l),
(134,1257,l),
(314,1257,l)
);
},
{
closed = 1;
nodes = (
(-26,-431,o),
(47,-431,qs),
(198,-431,o),
(263,-331,qs),
(314,-254,o),
(314,-58,qs),
(314,1062,l),
(134,1062,l),
(134,-54,ls),
(134,-200,o),
(80,-273,o),
(25,-273,qs),
(-6,-273,o),
(-60,-259,q),
(-94,-412,l)
);
}
);
width = 455;
},
{
layerId = "127036BF-2D52-44F9-AC71-F87836DD5CF9";
shapes = (
{
closed = 1;
nodes = (
(314,1466,l),
(134,1466,l),
(134,1257,l),
(314,1257,l)
);
},
{
closed = 1;
nodes = (
(-26,-431,o),
(47,-431,qs),
(198,-431,o),
(263,-331,qs),
(314,-254,o),
(314,-58,qs),
(314,1062,l),
(134,1062,l),
(134,-54,ls),
(134,-200,o),
(80,-273,o),
(25,-273,qs),
(-6,-273,o),
(-60,-259,q),
(-94,-412,l)
);
}
);
width = 455;
}
);
note = j;
unicode = 106;
},
{
glyphname = k;
layers = (
{
layerId = m01;
shapes = (
{
closed = 1;
nodes = (
(313,0,l),
(313,439,l),
(437,556,l),
(793,0,l),
(1023,0,l),
(565,675,l),
(982,1062,l),
(744,1062,l),
(313,645,l),
(313,1467,l),
(134,1467,l),
(134,0,l)
);
}
);
width = 1024;
},
{
layerId = "127036BF-2D52-44F9-AC71-F87836DD5CF9";
shapes = (
{
closed = 1;
nodes = (
(313,0,l),
(313,439,l),
(379,500,l),
(793,0,l),
(1023,0,l),
(507,621,l),
(982,1062,l),
(744,1062,l),
(313,645,l),
(313,1062,l),
(134,1062,l),
(134,0,l)
);
}
);
width = 1024;
},
{
layerId = "D99AEC69-38CE-4900-973C-16B918F65192";
shapes = (
{
closed = 1;
nodes = (
(313,0,l),
(313,439,l),
(437,556,l),
(793,0,l),
(1023,0,l),
(565,675,l),
(982,1062,l),
(744,1062,l),
(313,645,l),
(313,1467,l),
(134,1467,l),
(134,0,l)
);
}
);
width = 1024;
}
);
note = k;
unicode = 107;
},
{
glyphname = l;
layers = (
{
layerId = m01;
shapes = (
{
closed = 1;
nodes = (
(311,1466,l),
(131,1466,l),
(131,0,l),
(311,0,l)
);
}
);
width = 455;
},
{
layerId = "D99AEC69-38CE-4900-973C-16B918F65192";
shapes = (
{
closed = 1;
nodes = (
(311,1466,l),
(131,1466,l),
(131,0,l),
(311,0,l)
);
}
);
width = 455;
},
{
layerId = "127036BF-2D52-44F9-AC71-F87836DD5CF9";
shapes = (
{
closed = 1;
nodes = (
(311,1466,l),
(131,1466,l),
(131,0,l),
(311,0,l)
);
}
);
width = 455;
}
);
note = l;
unicode = 108;
},
{
glyphname = m;
layers = (
{
layerId = m01;
shapes = (
{
closed = 1;
nodes = (
(315,551,ls),
(315,696,o),
(373,850,o),
(502,930,o),
(578,930,qs),
(678,930,o),
(766,810,o),
(766,690,qs),
(766,0,l),
(946,0,l),
(946,617,ls),
(946,781,o),
(1094,930,o),
(1206,930,qs),
(1268,930,o),
(1360,872,o),
(1395,777,o),
(1395,669,qs),
(1395,0,l),
(1574,0,l),
(1574,729,ls),
(1574,911,o),
(1404,1086,o),
(1246,1086,qs),
(1044,1086,o),
(918,900,q),
(887,988,o),
(736,1086,o),
(618,1086,qs),
(512,1086,o),
(346,991,o),
(296,913,q),
(296,1062,l),
(135,1062,l),
(135,0,l),
(315,0,l)
);
}
);
width = 1706;
},
{
layerId = "D99AEC69-38CE-4900-973C-16B918F65192";
shapes = (
{
closed = 1;
nodes = (
(315,913,l),
(315,913,o),
(315,913,o),
(315,913,o),
(315,913,q),
(315,913,o),
(315,913,o),
(315,913,q),
(690,0,l),
(860,0,l),
(1242,893,l),
(1242,893,o),
(1242,893,o),
(1242,893,q),
(1242,893,o),
(1242,893,o),
(1242,893,o),
(1242,893,q),
(1242,0,l),
(1421,0,l),
(1421,1062,l),
(1421,1062,o),
(1119,1062,o),
(1119,1062,q),
(1119,1062,o),
(775,224,q),
(775,224,o),
(459,1062,o),
(459,1062,q),
(459,1062,o),
(296,1062,o),
(296,1062,q),
(296,1062,l),
(135,1062,l),
(135,0,l),
(315,0,l)
);
}
);
width = 1706;
},
{
layerId = "127036BF-2D52-44F9-AC71-F87836DD5CF9";
shapes = (
{
closed = 1;
nodes = (
(315,895,l),
(315,895,o),
(315,895,o),
(315,895,o),
(315,895,q),
(315,895,o),
(315,895,o),
(315,895,q),
(613,0,l),
(774,0,l),
(1088,855,l),
(1088,855,o),
(1088,855,o),
(1088,855,q),
(1088,855,o),
(1088,855,o),
(1088,855,o),
(1088,855,q),
(1089,0,l),
(1268,0,l),
(1268,1062,l),
(1268,1062,o),
(1009,1062,o),
(1009,1062,q),
(1009,1062,o),
(699,212,q),
(699,212,o),
(420,1062,o),
(420,1062,q),
(420,1062,o),
(296,1062,o),
(296,1062,q),
(296,1062,l),
(135,1062,l),
(135,0,l),
(315,0,l)
);
}
);
width = 1408;
}
);
note = m;
unicode = 109;
},
{
glyphname = n;
layers = (
{
layerId = m01;
shapes = (
{
closed = 1;
nodes = (
(319,580,ls),
(319,780,o),
(482,930,o),
(599,930,qs),
(718,930,o),
(822,794,o),
(822,646,qs),
(822,0,l),
(1002,0,l),
(1002,653,ls),
(1002,809,o),
(945,974,o),
(769,1086,o),
(639,1086,qs),
(418,1086,o),
(301,911,q),
(301,1062,l),
(139,1062,l),
(139,0,l),
(319,0,l)
);
}
);
width = 1139;
},
{
layerId = "127036BF-2D52-44F9-AC71-F87836DD5CF9";
shapes = (
{
closed = 1;
nodes = (
(319,580,ls),
(319,780,o),
(482,930,o),
(599,930,qs),
(718,930,o),
(822,794,o),
(822,646,qs),
(822,-407,l),
(1002,-407,l),
(1002,653,ls),
(1002,809,o),
(945,974,o),
(769,1086,o),
(639,1086,qs),
(418,1086,o),
(301,911,q),
(301,1062,l),
(139,1062,l),
(139,0,l),
(319,0,l)
);
}
);
width = 1139;
},
{
layerId = "D99AEC69-38CE-4900-973C-16B918F65192";
shapes = (
{
closed = 1;
nodes = (
(319,580,ls),
(319,780,o),
(482,930,o),
(599,930,qs),
(718,930,o),
(822,794,o),
(822,646,qs),
(822,0,l),
(1002,0,l),
(1002,653,ls),
(1002,809,o),
(945,974,o),
(769,1086,o),
(639,1086,qs),
(418,1086,o),
(301,911,q),
(301,1062,l),
(139,1062,l),
(139,0,l),
(319,0,l)
);
}
);
width = 1139;
}
);
note = n;
unicode = 110;
},
{
glyphname = o;
layers = (
{
layerId = m01;
shapes = (
{
closed = 1;
nodes = (
(68,262,o),
(343,-24,o),
(566,-24,qs),
(705,-24,o),
(940,106,o),
(1063,341,o),
(1063,546,qs),
(1063,799,o),
(785,1086,o),
(566,1086,qs),
(369,1086,o),
(232,968,qs),
(68,826,o),
(68,531,qs)
);
},
{
closed = 1;
nodes = (
(253,735,o),
(431,937,o),
(566,937,qs),
(699,937,o),
(878,734,o),
(878,537,qs),
(878,328,o),
(700,124,o),
(566,124,qs),
(431,124,o),
(253,327,o),
(253,531,qs)
);
},
{
closed = 1;
nodes = (
(557,942,l),
(561,942,l),
(561,1086,l),
(557,1086,l)
);
}
);
width = 1139;
},
{
layerId = "127036BF-2D52-44F9-AC71-F87836DD5CF9";
shapes = (
{
closed = 1;
nodes = (
(68,262,o),
(343,-24,o),
(566,-24,qs),
(705,-24,o),
(940,106,o),
(1063,341,o),
(1063,546,qs),
(1063,799,o),
(785,1086,o),
(566,1086,qs),
(369,1086,o),
(232,968,qs),
(68,826,o),
(68,531,qs)
);
},
{
closed = 1;
nodes = (
(253,735,o),
(431,937,o),
(566,937,qs),
(699,937,o),
(878,734,o),
(878,537,qs),
(878,328,o),
(700,124,o),
(566,124,qs),
(431,124,o),
(253,327,o),
(253,531,qs)
);
},
{
closed = 1;
nodes = (
(557,942,l),
(1219,942,l),
(1219,1086,l),
(557,1086,l)
);
}
);
width = 1264;
},
{
layerId = "D99AEC69-38CE-4900-973C-16B918F65192";
shapes = (
{
closed = 1;
nodes = (
(68,262,o),
(343,-24,o),
(566,-24,qs),
(705,-24,o),
(940,106,o),
(1063,341,o),
(1063,546,qs),
(1063,799,o),
(785,1086,o),
(566,1086,qs),
(369,1086,o),
(232,968,qs),
(68,826,o),
(68,531,qs)
);
},
{
closed = 1;
nodes = (
(253,735,o),
(431,937,o),
(566,937,qs),
(699,937,o),
(878,734,o),
(878,537,qs),
(878,328,o),
(700,124,o),
(566,124,qs),
(431,124,o),
(253,327,o),
(253,531,qs)
);
},
{
closed = 1;
nodes = (
(557,942,l),
(561,942,l),
(561,1086,l),
(557,1086,l)
);
}
);
width = 1139;
}
);
note = o;
unicode = 111;
},
{
glyphname = p;
layers = (
{
layerId = m01;
shapes = (
{
closed = 1;
nodes = (
(311,101,l),
(426,-24,o),
(623,-24,qs),
(834,-24,o),
(1063,285,o),
(1063,532,qs),
(1063,778,o),
(822,1086,o),
(596,1086,qs),
(369,1086,o),
(131,796,o),
(131,494,qs),
(131,-407,l),
(311,-407,l)
);
},
{
closed = 1;
nodes = (
(726,937,o),
(878,744,o),
(878,522,qs),
(878,327,o),
(738,124,o),
(603,124,qs),
(469,124,o),
(299,320,o),
(299,517,qs),
(299,736,o),
(471,937,o),
(602,937,qs)
);
},
{
closed = 1;
nodes = (
(131,363,l),
(299,363,l),
(299,1063,l),
(131,1063,l)
);
}
);
width = 1265;
},
{
layerId = "127036BF-2D52-44F9-AC71-F87836DD5CF9";
shapes = (
{
closed = 1;
nodes = (
(311,101,l),
(426,-24,o),
(623,-24,qs),
(834,-24,o),
(1093,285,o),
(1093,532,qs),
(1093,778,o),
(822,1086,o),
(596,1086,qs),
(369,1086,o),
(131,796,o),
(131,494,qs),
(131,-407,l),
(311,-407,l)
);
},
{
closed = 1;
nodes = (
(726,937,o),
(908,744,o),
(908,522,qs),
(908,327,o),
(738,124,o),
(603,124,qs),
(469,124,o),
(313,320,o),
(313,517,qs),
(313,736,o),
(471,937,o),
(602,937,qs)
);
},
{
closed = 1;
nodes = (
(131,363,l),
(299,363,l),
(299,677,l),
(131,478,l)
);
}
);
width = 1165;
},
{
layerId = "D99AEC69-38CE-4900-973C-16B918F65192";
shapes = (
{
closed = 1;
nodes = (
(311,101,l),
(426,-24,o),
(623,-24,qs),
(834,-24,o),
(1063,285,o),
(1063,532,qs),
(1063,778,o),
(822,1086,o),
(596,1086,qs),
(369,1086,o),
(131,796,o),
(131,494,qs),
(131,-407,l),
(311,-407,l)
);
},
{
closed = 1;
nodes = (
(726,937,o),
(878,744,o),
(878,522,qs),
(878,327,o),
(738,124,o),
(603,124,qs),
(469,124,o),
(299,320,o),
(299,517,qs),
(299,736,o),
(471,937,o),
(602,937,qs)
);
},
{
closed = 1;
nodes = (
(131,363,l),
(299,363,l),
(299,1063,l),
(131,1063,l)
);
}
);
width = 1265;
}
);
note = p;
unicode = 112;
},
{
glyphname = q;
layers = (
{
layerId = m01;
shapes = (
{
closed = 1;
nodes = (
(992,1062,l),
(830,1062,l),
(830,920,l),
(717,1086,o),
(520,1086,qs),
(394,1086,o),
(183,955,o),
(72,701,o),
(72,541,qs),
(72,278,o),
(345,-24,o),
(534,-24,qs),
(619,-24,o),
(770,54,o),
(812,113,q),
(812,-407,l),
(992,-407,l)
);
},
{
closed = 1;
nodes = (
(257,745,o),
(420,944,o),
(537,944,qs),
(655,944,o),
(830,730,o),
(830,518,qs),
(830,319,o),
(664,124,o),
(549,124,qs),
(429,124,o),
(257,329,o),
(257,534,qs)
);
}
);
width = 1139;
},
{
layerId = "D99AEC69-38CE-4900-973C-16B918F65192";
shapes = (
{
closed = 1;
nodes = (
(992,1062,l),
(830,1062,l),
(830,920,l),
(717,1086,o),
(520,1086,qs),
(394,1086,o),
(183,955,o),
(72,701,o),
(72,541,qs),
(72,278,o),
(345,-24,o),
(534,-24,qs),
(619,-24,o),
(770,54,o),
(812,113,q),
(812,-407,l),
(992,-407,l)
);
},
{
closed = 1;
nodes = (
(257,745,o),
(420,944,o),
(537,944,qs),
(655,944,o),
(830,730,o),
(830,518,qs),
(830,319,o),
(664,124,o),
(549,124,qs),
(429,124,o),
(257,329,o),
(257,534,qs)
);
}
);
width = 1139;
},
{
layerId = "127036BF-2D52-44F9-AC71-F87836DD5CF9";
shapes = (
{
closed = 1;
nodes = (
(992,1062,l),
(830,1062,l),
(830,920,l),
(717,1086,o),
(520,1086,qs),
(394,1086,o),
(183,955,o),
(72,701,o),
(72,541,qs),
(72,278,o),
(345,-24,o),
(534,-24,qs),
(619,-24,o),
(770,54,o),
(812,113,q),
(812,-407,l),
(992,-407,l)
);
},
{
closed = 1;
nodes = (
(257,745,o),
(420,944,o),
(537,944,qs),
(655,944,o),
(830,730,o),
(830,518,qs),
(830,319,o),
(664,124,o),
(549,124,qs),
(429,124,o),
(257,329,o),
(257,534,qs)
);
}
);
width = 1139;
}
);
note = q;
unicode = 113;
},
{
glyphname = r;
layers = (
{
layerId = m01;
shapes = (
{
closed = 1;
nodes = (
(133,0,l),
(313,0,l),
(311,423,ls),
(303,785,o),
(511,940,o),
(648,861,q),
(648,861,l),
(710,1028,l),
(710,1028,l),
(436,1187,o),
(295,901,q),
(295,901,o),
(295,901,o),
(295,901,q),
(295,901,o),
(297,1062,o),
(297,1062,q),
(133,1062,l)
);
},
{
closed = 1;
nodes = (
(295,901,l),
(295,901,l),
(295,901,o),
(297,562,o),
(297,562,q),
(297,562,o),
(297,562,o),
(297,562,q),
(297,562,l)
);
}
);
width = 682;
},
{
layerId = "D99AEC69-38CE-4900-973C-16B918F65192";
shapes = (
{
closed = 1;
nodes = (
(107,0,l),
(287,0,l),
(286,419,l),
(335,535,o),
(602,594,o),
(723,431,q),
(723,431,l),
(866,514,l),
(866,514,l),
(709,724,o),
(353,668,q),
(417,731,o),
(435,832,o),
(435,868,qs),
(435,953,o),
(369,1062,o),
(315,1062,qs),
(107,1062,l)
);
},
{
closed = 1;
nodes = (
(278,907,l),
(278,907,l),
(278,907,o),
(276,731,o),
(276,731,q),
(276,731,o),
(279,551,o),
(279,551,q),
(279,540,l)
);
}
);
width = 916;
},
{
layerId = "127036BF-2D52-44F9-AC71-F87836DD5CF9";
shapes = (
{
closed = 1;
nodes = (
(81,0,l),
(260,0,l),
(260,414,l),
(401,414,o),
(551,365,o),
(641,232,qs),
(798,0,l),
(1021,0,l),
(827,286,ls),
(738,417,o),
(650,434,q),
(804,455,o),
(953,635,o),
(953,752,qs),
(953,890,o),
(758,1062,o),
(573,1062,qs),
(81,1062,l)
);
},
{
closed = 1;
nodes = (
(260,913,l),
(516,913,ls),
(677,913,o),
(770,813,o),
(770,746,qs),
(770,651,o),
(633,562,o),
(459,562,qs),
(260,562,l)
);
}
);
width = 1041;
}
);
note = r;
unicode = 114;
},
{
glyphname = s;
layers = (
{
layerId = m01;
shapes = (
{
closed = 1;
nodes = (
(93,148,o),
(310,-24,o),
(517,-24,qs),
(642,-24,o),
(840,63,o),
(945,222,o),
(945,312,qs),
(945,404,o),
(859,528,o),
(708,593,o),
(517,644,qs),
(385,680,o),
(358,690,qs),
(311,709,o),
(289,738,qs),
(267,766,o),
(267,801,qs),
(267,856,o),
(373,938,o),
(497,938,qs),
(602,938,o),
(717,846,o),
(729,764,q),
(905,788,l),
(888,891,o),
(798,1014,o),
(609,1086,o),
(484,1086,qs),
(401,1086,o),
(256,1043,o),
(214,1012,qs),
(158,972,o),
(93,851,o),
(93,780,qs),
(93,702,o),
(172,573,o),
(325,500,o),
(523,450,qs),
(670,413,o),
(707,389,qs),
(760,354,o),
(760,293,qs),
(760,225,o),
(640,124,o),
(516,124,qs),
(393,124,o),
(256,238,o),
(241,345,q),
(63,317,l)
);
}
);
width = 1024;
},
{
layerId = "D99AEC69-38CE-4900-973C-16B918F65192";
shapes = (
{
closed = 1;
nodes = (
(93,148,o),
(310,-24,o),
(517,-24,qs),
(642,-24,o),
(840,63,o),
(945,222,o),
(945,312,qs),
(945,404,o),
(859,528,o),
(708,593,o),
(517,644,qs),
(385,680,o),
(358,690,qs),
(311,709,o),
(289,738,qs),
(267,766,o),
(267,801,qs),
(267,856,o),
(373,938,o),
(497,938,qs),
(602,938,o),
(717,846,o),
(729,764,q),
(905,788,l),
(888,891,o),
(798,1014,o),
(609,1086,o),
(484,1086,qs),
(401,1086,o),
(256,1043,o),
(214,1012,qs),
(158,972,o),
(93,851,o),
(93,780,qs),
(93,702,o),
(172,573,o),
(325,500,o),
(523,450,qs),
(670,413,o),
(707,389,qs),
(760,354,o),
(760,293,qs),
(760,225,o),
(640,124,o),
(516,124,qs),
(393,124,o),
(256,238,o),
(241,345,q),
(63,317,l)
);
}
);
width = 1024;
},
{
layerId = "127036BF-2D52-44F9-AC71-F87836DD5CF9";
shapes = (
{
closed = 1;
nodes = (
(93,148,o),
(310,-24,o),
(517,-24,qs),
(642,-24,o),
(840,63,o),
(945,222,o),
(945,312,qs),
(945,404,o),
(859,528,o),
(708,593,o),
(517,644,qs),
(385,680,o),
(358,690,qs),
(311,709,o),
(289,738,qs),
(267,766,o),
(267,801,qs),
(267,856,o),
(373,938,o),
(497,938,qs),
(602,938,o),
(717,846,o),
(729,764,q),
(905,788,l),
(888,891,o),
(798,1014,o),
(609,1086,o),
(484,1086,qs),
(401,1086,o),
(256,1043,o),
(214,1012,qs),
(158,972,o),
(93,851,o),
(93,780,qs),
(93,702,o),
(172,573,o),
(325,500,o),
(523,450,qs),
(670,413,o),
(707,389,qs),
(760,354,o),
(760,293,qs),
(760,225,o),
(640,124,o),
(516,124,qs),
(393,124,o),
(256,238,o),
(241,345,q),
(63,317,l)
);
}
);
width = 1024;
}
);
note = s;
unicode = 115;
},
{
glyphname = t;
layers = (
{
layerId = m01;
shapes = (
{
closed = 1;
nodes = (
(479,154,o),
(449,154,qs),
(409,154,o),
(366,180,o),
(347,224,o),
(347,301,qs),
(347,922,l),
(528,922,l),
(528,1062,l),
(347,1062,l),
(347,1433,l),
(168,1325,l),
(168,1062,l),
(36,1062,l),
(36,922,l),
(168,922,l),
(168,311,ls),
(168,149,o),
(212,48,o),
(320,-14,o),
(418,-14,qs),
(478,-14,o),
(554,2,q),
(528,161,l)
);
}
);
width = 569;
},
{
layerId = "D99AEC69-38CE-4900-973C-16B918F65192";
shapes = (
{
closed = 1;
nodes = (
(516,77,o),
(492,92,q),
(472,112,o),
(463,149,o),
(453,222,o),
(453,301,qs),
(453,918,l),
(715,918,l),
(715,1062,l),
(453,1062,l),
(453,1248,l),
(274,1194,l),
(274,1062,l),
(36,1062,l),
(36,918,l),
(274,918,l),
(274,311,ls),
(274,230,o),
(290,112,o),
(345,13,o),
(399,-7,qs),
(460,-30,o),
(557,1,q),
(544,81,l)
);
}
);
width = 735;
},
{
layerId = "127036BF-2D52-44F9-AC71-F87836DD5CF9";
shapes = (
{
closed = 1;
nodes = (
(559,-2,o),
(559,0,qs),
(559,40,o),
(559,219,o),
(559,219,o),
(559,301,qs),
(559,914,l),
(901,914,l),
(901,1062,l),
(559,1062,l),
(559,1062,l),
(380,1062,l),
(380,1062,l),
(36,1062,l),
(36,914,l),
(380,914,l),
(380,311,l),
(380,311,o),
(380,0,o),
(380,0,o),
(380,0,q),
(445,0,o),
(559,0,q),
(559,0,l)
);
}
);
width = 938;
}
);
note = t;
unicode = 116;
},
{
glyphname = u;
layers = (
{
layerId = m01;
shapes = (
{
closed = 1;
nodes = (
(992,1062,l),
(812,1062,l),
(812,493,ls),
(812,357,o),
(753,214,o),
(611,131,o),
(530,131,qs),
(449,131,o),
(339,212,o),
(322,283,qs),
(311,332,o),
(311,473,qs),
(311,1062,l),
(131,1062,l),
(131,404,ls),
(131,289,o),
(142,236,qs),
(158,157,o),
(237,48,o),
(400,-24,o),
(494,-24,qs),
(707,-24,o),
(831,156,q),
(831,0,l),
(992,0,l)
);
},
{
closed = 1;
nodes = (
(132,428,l),
(311,268,l),
(311,437,l),
(132,437,l)
);
}
);
width = 1139;
},
{
layerId = "127036BF-2D52-44F9-AC71-F87836DD5CF9";
shapes = (
{
closed = 1;
nodes = (
(1018,1062,l),
(838,1062,l),
(838,493,ls),
(838,357,o),
(779,214,o),
(656,135,o),
(575,141,qs),
(493,147,o),
(395,217,o),
(367,287,qs),
(342,350,o),
(341,487,qs),
(337,1062,l),
(157,1062,l),
(158,437,ls),
(158,325,o),
(249,212,qs),
(297,152,o),
(383,48,o),
(497,-25,o),
(591,-25,qs),
(767,-25,o),
(857,126,q),
(857,0,l),
(1018,0,l)
);
},
{
closed = 1;
nodes = (
(158,-408,l),
(337,-408,l),
(337,437,l),
(158,437,l)
);
}
);
width = 1139;
},
{
layerId = "D99AEC69-38CE-4900-973C-16B918F65192";
shapes = (
{
closed = 1;
nodes = (
(992,1062,l),
(812,1062,l),
(812,493,ls),
(812,357,o),
(753,214,o),
(611,131,o),
(530,131,qs),
(449,131,o),
(339,212,o),
(322,283,qs),
(311,332,o),
(311,473,qs),
(311,1062,l),
(131,1062,l),
(131,404,ls),
(131,289,o),
(142,236,qs),
(158,157,o),
(237,48,o),
(400,-24,o),
(494,-24,qs),
(707,-24,o),
(831,156,q),
(831,0,l),
(992,0,l)
);
},
{
closed = 1;
nodes = (
(132,428,l),
(311,268,l),
(311,437,l),
(132,437,l)
);
}
);
width = 1139;
}
);
note = u;
unicode = 117;
},
{
glyphname = v;
layers = (
{
layerId = m01;
shapes = (
{
closed = 1;
nodes = (
(1000,1062,l),
(815,1062,l),
(579,414,ls),
(536,296,o),
(512,212,q),
(481,323,o),
(444,426,qs),
(216,1062,l),
(26,1062,l),
(430,0,l),
(598,0,l)
);
}
);
width = 1024;
},
{
layerId = "D99AEC69-38CE-4900-973C-16B918F65192";
shapes = (
{
closed = 1;
nodes = (
(1000,1062,l),
(815,1062,l),
(579,414,ls),
(536,296,o),
(512,212,q),
(481,323,o),
(444,426,qs),
(216,1062,l),
(26,1062,l),
(430,0,l),
(598,0,l)
);
}
);
width = 1024;
},
{
layerId = "127036BF-2D52-44F9-AC71-F87836DD5CF9";
shapes = (
{
closed = 1;
nodes = (
(1000,1062,l),
(815,1062,l),
(579,414,ls),
(536,296,o),
(512,212,q),
(481,323,o),
(444,426,qs),
(216,1062,l),
(26,1062,l),
(430,0,l),
(598,0,l)
);
}
);
width = 1024;
}
);
note = v;
unicode = 118;
},
{
glyphname = w;
layers = (
{
layerId = m01;
shapes = (
{
closed = 1;
nodes = (
(331,0,o),
(331,0,q),
(331,0,o),
(519,0,o),
(519,0,q),
(734,817,o),
(734,817,q),
(734,817,o),
(944,0,q),
(944,0,o),
(1131,0,o),
(1131,0,q),
(1131,0,o),
(1463,1062,q),
(1288,1062,l),
(1288,1062,o),
(1045,243,q),
(1045,243,o),
(1045,243,o),
(1045,243,q),
(1045,243,o),
(1045,243,o),
(1045,243,o),
(1045,243,q),
(833,1062,l),
(648,1062,l),
(424,221,l),
(424,221,o),
(424,221,o),
(424,221,o),
(424,221,q),
(424,221,o),
(424,221,o),
(424,221,q),
(192,1062,o),
(192,1062,q),
(6,1062,l)
);
}
);
width = 1479;
},
{
layerId = "D99AEC69-38CE-4900-973C-16B918F65192";
shapes = (
{
closed = 1;
nodes = (
(209,391,o),
(209,259,qs),
(209,133,o),
(408,-12,o),
(498,-12,q),
(718,397,o),
(767,516,q),
(816,397,o),
(1034,-12,q),
(1119,-12,o),
(1322,126,o),
(1322,259,qs),
(1322,391,o),
(1409,1062,q),
(1235,1062,l),
(1196,703,o),
(1074,180,q),
(1074,180,o),
(1074,180,o),
(1074,180,q),
(1074,180,o),
(1074,180,o),
(1074,180,o),
(1074,180,q),
(861,928,l),
(679,928,l),
(461,169,l),
(461,169,o),
(461,169,o),
(461,169,o),
(461,169,q),
(461,169,o),
(461,169,o),
(461,169,q),
(345,703,o),
(306,1062,q),
(126,1062,l)
);
}
);
width = 1479;
},
{
layerId = "127036BF-2D52-44F9-AC71-F87836DD5CF9";
shapes = (
{
closed = 1;
nodes = (
(87,781,o),
(87,517,qs),
(87,266,o),
(297,-24,o),
(476,-24,qs),
(702,-24,o),
(800,215,q),
(897,-24,o),
(1123,-24,qs),
(1293,-24,o),
(1512,252,o),
(1512,517,qs),
(1512,781,o),
(1354,1062,q),
(1181,1062,l),
(1329,733,o),
(1329,506,qs),
(1329,330,o),
(1201,117,o),
(1103,117,qs),
(1039,117,o),
(926,216,o),
(889,360,o),
(889,483,qs),
(889,794,l),
(710,794,l),
(710,483,ls),
(710,357,o),
(673,217,o),
(561,117,o),
(497,117,qs),
(398,117,o),
(270,331,o),
(270,506,qs),
(270,733,o),
(419,1062,q),
(245,1062,l)
);
}
);
width = 1599;
}
);
note = w;
unicode = 119;
},
{
glyphname = x;
layers = (
{
layerId = m01;
shapes = (
{
closed = 1;
nodes = (
(506,694,l),
(506,694,o),
(506,694,o),
(506,694,q),
(506,694,o),
(271,1062,o),
(271,1062,o),
(271,1062,q),
(44,1062,l),
(44,1062,l),
(44,1062,o),
(44,1062,q),
(44,1062,o),
(44,1062,q),
(44,1062,o),
(44,1062,q),
(44,1062,o),
(403,552,o),
(403,552,q),
(225,299,o),
(225,299,q),
(15,0,l),
(233,0,l),
(512,419,l),
(512,419,o),
(512,419,o),
(512,419,q),
(512,419,l),
(512,419,l),
(512,419,l),
(512,419,o),
(512,419,o),
(512,419,q),
(790,0,l),
(1012,0,l),
(799,299,ls),
(612,561,o),
(614,562,q),
(614,562,o),
(982,1062,o),
(982,1062,q),
(982,1062,o),
(982,1062,q),
(982,1062,o),
(982,1062,q),
(982,1062,l),
(982,1062,l),
(768,1062,l),
(768,1062,o),
(768,1062,q),
(506,694,o),
(506,694,q),
(506,694,o),
(506,694,o),
(506,694,q),
(506,694,l),
(506,694,l)
);
}
);
width = 1027;
},
{
layerId = "D99AEC69-38CE-4900-973C-16B918F65192";
shapes = (
{
closed = 1;
nodes = (
(593,603,l),
(506,603,o),
(437,671,o),
(371,828,qs),
(317,956,o),
(250,1037,o),
(165,1062,o),
(61,1062,qs),
(36,1062,l),
(36,913,l),
(76,914,o),
(89,914,qs),
(140,914,o),
(166,901,qs),
(191,888,o),
(213,833,qs),
(277,669,o),
(341,582,o),
(421,545,q),
(303,515,o),
(192,329,qs),
(-5,0,l),
(193,0,l),
(386,329,ls),
(445,430,o),
(533,491,o),
(593,491,q),
(593,491,l),
(777,491,l),
(777,491,l),
(838,491,o),
(926,429,o),
(985,329,qs),
(1178,0,l),
(1376,0,l),
(1178,329,ls),
(1067,514,o),
(950,545,q),
(1022,578,o),
(1090,658,o),
(1130,762,qs),
(1173,871,o),
(1194,893,qs),
(1214,915,o),
(1286,914,qs),
(1335,913,l),
(1335,1062,l),
(1269,1062,ls),
(1162,1062,o),
(1113,1021,qs),
(1063,979,o),
(1000,828,qs),
(933,669,o),
(863,603,o),
(777,603,q),
(777,603,l),
(593,603,l)
);
}
);
width = 1376;
},
{
layerId = "127036BF-2D52-44F9-AC71-F87836DD5CF9";
shapes = (
{
closed = 1;
nodes = (
(593,603,l),
(506,603,o),
(437,671,o),
(371,828,qs),
(317,956,o),
(250,1037,o),
(165,1062,o),
(61,1062,qs),
(36,1062,l),
(36,913,l),
(76,914,o),
(89,914,qs),
(140,914,o),
(166,901,qs),
(191,888,o),
(213,833,qs),
(277,669,o),
(341,582,o),
(421,545,q),
(304,514,o),
(192,329,qs),
(-5,0,l),
(193,0,l),
(386,329,ls),
(445,430,o),
(533,491,o),
(593,491,q),
(593,0,l),
(777,0,l),
(777,491,l),
(838,491,o),
(926,429,o),
(985,329,qs),
(1178,0,l),
(1376,0,l),
(1178,329,ls),
(1067,514,o),
(950,545,q),
(1022,578,o),
(1090,658,o),
(1130,762,qs),
(1173,871,o),
(1194,893,qs),
(1214,914,o),
(1286,914,qs),
(1335,913,l),
(1335,1062,l),
(1269,1062,ls),
(1162,1062,o),
(1113,1021,qs),
(1063,979,o),
(1000,828,qs),
(933,669,o),
(863,603,o),
(777,603,q),
(777,1062,l),
(593,1062,l)
);
}
);
width = 1370;
}
);
note = x;
unicode = 120;
},
{
glyphname = y;
layers = (
{
layerId = m01;
shapes = (
{
closed = 1;
nodes = (
(191,-431,o),
(243,-431,qs),
(329,-431,o),
(453,-348,o),
(501,-259,qs),
(537,-193,o),
(602,-18,qs),
(1006,1062,l),
(826,1062,l),
(599,443,ls),
(556,325,o),
(525,201,q),
(491,330,o),
(448,447,qs),
(227,1062,l),
(33,1062,l),
(436,-2,l),
(425,-31,o),
(420,-46,qs),
(382,-153,o),
(365,-180,qs),
(342,-216,o),
(270,-256,o),
(210,-256,qs),
(166,-256,o),
(107,-240,q),
(127,-409,l)
);
}
);
width = 1024;
},
{
layerId = "127036BF-2D52-44F9-AC71-F87836DD5CF9";
shapes = (
{
closed = 1;
nodes = (
(419,-407,o),
(419,-407,q),
(602,-407,o),
(602,-407,o),
(602,-407,q),
(602,0,o),
(602,0,q),
(999,1062,l),
(815,1062,l),
(511,225,l),
(511,225,o),
(511,225,q),
(511,225,o),
(511,225,q),
(214,1062,l),
(25,1062,l),
(419,0,l),
(419,0,o),
(419,0,qs),
(419,0,o),
(419,-178,q),
(419,-178,o),
(419,-256,o),
(419,-256,q),
(419,-256,o),
(419,-256,q),
(419,-407,l)
);
}
);
width = 1024;
},
{
layerId = "D99AEC69-38CE-4900-973C-16B918F65192";
shapes = (
{
closed = 1;
nodes = (
(191,-431,o),
(243,-431,qs),
(329,-431,o),
(453,-348,o),
(501,-259,qs),
(537,-193,o),
(602,-18,qs),
(1006,1062,l),
(826,1062,l),
(599,443,ls),
(556,325,o),
(525,201,q),
(491,330,o),
(448,447,qs),
(227,1062,l),
(33,1062,l),
(436,-2,l),
(425,-31,o),
(420,-46,qs),
(382,-153,o),
(365,-180,qs),
(342,-216,o),
(270,-256,o),
(210,-256,qs),
(166,-256,o),
(107,-240,q),
(127,-409,l)
);
}
);
width = 1024;
}
);
note = y;
unicode = 121;
},
{
glyphname = z;
layers = (
{
layerId = m01;
shapes = (
{
closed = 1;
nodes = (
(980,155,l),
(489,155,ls),
(383,155,o),
(262,146,q),
(373,269,l),
(948,943,l),
(948,1062,l),
(80,1062,l),
(80,916,l),
(513,916,ls),
(601,916,o),
(716,922,q),
(40,146,l),
(40,0,l),
(980,0,l)
);
}
);
width = 1024;
},
{
layerId = "D99AEC69-38CE-4900-973C-16B918F65192";
shapes = (
{
closed = 1;
nodes = (
(980,155,l),
(489,155,ls),
(383,155,o),
(262,146,q),
(373,269,l),
(948,943,l),
(948,1062,l),
(80,1062,l),
(80,916,l),
(513,916,ls),
(601,916,o),
(716,922,q),
(40,146,l),
(40,0,l),
(980,0,l)
);
}
);
width = 1024;
},
{
layerId = "127036BF-2D52-44F9-AC71-F87836DD5CF9";
shapes = (
{
closed = 1;
nodes = (
(980,155,l),
(489,155,ls),
(383,155,o),
(262,146,q),
(373,269,l),
(948,943,l),
(948,1062,l),
(80,1062,l),
(80,916,l),
(513,916,ls),
(601,916,o),
(716,922,q),
(40,146,l),
(40,0,l),
(980,0,l)
);
}
);
width = 1024;
}
);
note = z;
unicode = 122;
},
{
glyphname = period;
layers = (
{
layerId = m01;
shapes = (
{
closed = 1;
nodes = (
(920,346,l),
(1418,3,l),
(1246,585,l),
(1730,964,l),
(1109,964,l),
(920,1547,l),
(714,964,l),
(99,964,l),
(596,585,l),
(408,3,l)
);
},
{
closed = 1;
nodes = (
(913,751,l),
(913,751,l),
(913,751,l),
(912,751,l),
(913,751,l),
(913,751,l),
(913,751,l),
(913,751,l),
(912,751,l),
(913,751,l)
);
}
